<svg width="18" height="18" viewBox="0 0 18 18" fill="none" xmlns="http://www.w3.org/2000/svg">
<path d="M4.72809 0.0457039C4.41169 0.151173 4.12692 0.404297 3.96872 0.720703C3.89489 0.871876 3.88434 0.945704 3.88434 1.24805C3.88434 1.86328 3.57848 1.51172 7.55466 5.49141L11.0562 9L7.55466 12.5051C3.57848 16.4883 3.88434 16.1367 3.88434 16.752C3.88434 17.0719 3.89489 17.1211 3.9863 17.3074C4.10934 17.5465 4.34137 17.775 4.58747 17.8945C4.73864 17.9719 4.81247 17.9824 5.13239 17.9824C5.46989 17.9824 5.51911 17.9754 5.69489 17.884C5.85309 17.7996 6.63708 17.0332 9.88552 13.7883C13.2078 10.4695 13.9039 9.75586 13.9988 9.58008C14.1078 9.37969 14.1148 9.35156 14.1148 9C14.1148 8.64844 14.1078 8.62031 13.9988 8.41992C13.9039 8.24414 13.2078 7.53047 9.88552 4.21172C6.58434 0.914062 5.85309 0.200392 5.69489 0.119532C5.53317 0.0386715 5.4488 0.0210934 5.18512 0.0105476C4.98825 0.00351524 4.81598 0.0175781 4.72809 0.0457039Z" fill="#121212"/>
</svg>
