<svg width="18" height="18" viewBox="0 0 18 18" fill="none" xmlns="http://www.w3.org/2000/svg">
<path d="M17.9543 4.72809C17.8488 4.41169 17.5957 4.12692 17.2793 3.96872C17.1281 3.89489 17.0543 3.88434 16.752 3.88434C16.1367 3.88434 16.4883 3.57848 12.5086 7.55466L9 11.0562L5.49492 7.55466C1.51172 3.57848 1.86328 3.88434 1.24805 3.88434C0.928125 3.88434 0.878906 3.89489 0.692578 3.9863C0.453516 4.10934 0.225 4.34137 0.105469 4.58747C0.028125 4.73864 0.0175781 4.81247 0.0175781 5.13239C0.0175781 5.46989 0.0246094 5.51911 0.116016 5.69489C0.200391 5.85309 0.966797 6.63708 4.21172 9.88552C7.53047 13.2078 8.24414 13.9039 8.41992 13.9988C8.62031 14.1078 8.64844 14.1148 9 14.1148C9.35156 14.1148 9.37969 14.1078 9.58008 13.9988C9.75586 13.9039 10.4695 13.2078 13.7883 9.88552C17.0859 6.58434 17.7996 5.85309 17.8805 5.69489C17.9613 5.53317 17.9789 5.4488 17.9895 5.18512C17.9965 4.98825 17.9824 4.81598 17.9543 4.72809Z" fill="#121212"/>
</svg>
