<svg width="13" height="13" viewBox="0 0 13 13" fill="none" xmlns="http://www.w3.org/2000/svg">
<path d="M9.58494 12.967C9.81346 12.8908 10.0191 12.708 10.1334 12.4795C10.1867 12.3703 10.1943 12.317 10.1943 12.0986C10.1943 11.6543 10.4152 11.9082 7.54353 9.03398L5.01463 6.5L7.54353 3.96855C10.4152 1.0918 10.1943 1.3457 10.1943 0.901367C10.1943 0.670312 10.1867 0.634766 10.1207 0.500195C10.0318 0.327539 9.86424 0.1625 9.6865 0.0761719C9.57732 0.0203125 9.524 0.0126953 9.29295 0.0126953C9.0492 0.0126953 9.01365 0.0177734 8.8867 0.0837891C8.77244 0.144727 8.20623 0.698242 5.86014 3.0418C3.46072 5.43867 2.95799 5.9541 2.88943 6.08105C2.81072 6.22578 2.80564 6.24609 2.80564 6.5C2.80564 6.75391 2.81072 6.77422 2.88943 6.91894C2.95799 7.0459 3.46072 7.56133 5.86014 9.9582C8.24432 12.3398 8.77244 12.8553 8.8867 12.9137C9.00349 12.9721 9.06443 12.9848 9.25486 12.9924C9.39705 12.9975 9.52146 12.9873 9.58494 12.967Z" fill="#7B7C7D"/>
</svg>
