<svg width="21" height="21" viewBox="0 0 21 21" fill="none" xmlns="http://www.w3.org/2000/svg">
<path d="M9.77363 2.04668C9.22402 2.20664 8.71953 2.53887 8.3832 2.95723C8.30117 3.06387 6.67285 5.84063 4.76973 9.13008C2.05859 13.8182 1.2875 15.184 1.20137 15.4424C1.10703 15.7254 1.09473 15.8402 1.09473 16.2832C1.09473 16.7262 1.10703 16.841 1.20137 17.124C1.48848 17.9895 2.14473 18.658 2.97324 18.9205L3.26035 19.0107H10.4996H17.7389L18.026 18.9205C18.6248 18.7318 19.2154 18.2561 19.5354 17.7146C19.802 17.2594 19.9045 16.8738 19.9086 16.3037C19.9127 15.791 19.8348 15.4219 19.6461 15.0486C19.4779 14.7246 12.7801 3.17051 12.6816 3.03516C12.3699 2.6209 11.8449 2.24356 11.3609 2.0836C10.9795 1.96055 10.1305 1.94004 9.77363 2.04668ZM11.0533 3.44121C11.1887 3.50684 11.3773 3.63809 11.4676 3.73652C11.5824 3.85547 12.8006 5.92676 15.0482 9.81504C18.7889 16.2791 18.6412 15.9961 18.5469 16.4965C18.4854 16.8287 18.3623 17.0666 18.149 17.2799C17.9193 17.5055 17.665 17.6326 17.341 17.6818C17.1811 17.7064 14.5191 17.7188 10.315 17.7105L3.54746 17.6982L3.28086 17.5711C2.80508 17.3455 2.53848 16.9887 2.44824 16.4719C2.41133 16.2504 2.41543 16.1684 2.47285 15.9551C2.56719 15.6188 9.27324 4.00723 9.53164 3.73652C9.62188 3.63809 9.81055 3.50684 9.9459 3.44121C10.151 3.34277 10.2453 3.32227 10.4996 3.32227C10.7539 3.32227 10.8482 3.34277 11.0533 3.44121Z" fill="#6C6AC1"/>
<path d="M10.1918 6.68132C9.75294 6.78796 9.43712 7.1735 9.40431 7.64929C9.3797 7.98561 9.82267 13.1741 9.88419 13.2971C9.9129 13.3464 9.98263 13.4407 10.04 13.5022C10.3313 13.818 10.8932 13.7196 11.0983 13.3176C11.1475 13.2274 11.2213 12.4973 11.3936 10.4178L11.6233 7.64108L11.5494 7.39909C11.3772 6.84948 10.7865 6.53776 10.1918 6.68132Z" fill="#6C6AC1"/>
<path d="M10.1095 14.8354C9.4902 15.1594 9.43278 15.9838 9.99879 16.3857C10.1629 16.4965 10.208 16.5088 10.4992 16.5088C10.7904 16.5088 10.8355 16.4965 10.9996 16.3857C11.5533 15.992 11.5041 15.1512 10.9052 14.8477C10.7084 14.7451 10.29 14.741 10.1095 14.8354Z" fill="#6C6AC1"/>
</svg>
