<svg width="36" height="36" viewBox="0 0 36 36" fill="none" xmlns="http://www.w3.org/2000/svg">
<g clip-path="url(#clip0_244_1254)">
<path d="M31.9005 0.0984383C31.5138 0.239063 31.106 0.541409 30.8739 0.857815C30.7614 1.0125 30.5154 1.49766 30.3325 1.94062C30.0302 2.68594 29.988 2.74219 29.8122 2.74219C29.4396 2.74219 28.9474 2.94609 28.6802 3.20625C28.4411 3.43828 27.8083 4.87266 22.8864 16.3547C17.6693 28.5328 17.3669 29.2641 17.3669 29.6508C17.3669 29.8758 17.4161 30.6703 17.4724 31.4227C17.5357 32.175 17.5708 32.7938 17.5568 32.8078C17.5427 32.8219 17.381 32.618 17.1911 32.3578C16.7341 31.732 15.6091 30.6211 15.0607 30.2555C14.3364 29.7703 13.9286 29.6438 13.113 29.6367C12.4521 29.6367 12.3747 29.6508 11.9247 29.8758C11.3622 30.15 10.9333 30.5578 10.0685 31.6547C9.30911 32.6109 8.90129 32.9977 8.41614 33.2297C7.95911 33.4406 7.50911 33.4477 7.01692 33.2508C6.60911 33.0961 5.97629 32.7094 5.97629 32.625C5.97629 32.5969 6.10989 32.4844 6.27161 32.3719C6.74973 32.0414 8.22629 30.8602 8.70442 30.4172C9.58332 29.6016 10.3146 28.4625 10.4833 27.6469C10.6661 26.7469 10.2864 25.6852 9.52707 24.975C8.35989 23.8852 6.83411 23.6883 5.25207 24.4195C3.36067 25.2914 2.22161 27.1547 2.34114 29.1797C2.39739 30.157 2.77004 31.2188 3.33957 32.0555L3.57864 32.4L2.41848 33.1313C0.238794 34.4953 0.189575 34.5305 0.077075 34.8258C-0.0143312 35.0648 -0.00729995 35.1211 0.0911375 35.332C0.231763 35.6344 0.576294 35.8172 0.871606 35.7609C1.09661 35.7117 1.94036 35.2195 3.60676 34.1578C4.14114 33.8203 4.59114 33.5391 4.61223 33.5391C4.62629 33.5391 4.80207 33.6656 4.99895 33.8203C5.86379 34.5023 6.82004 34.8891 7.67786 34.8891C8.97161 34.8891 9.90676 34.2914 11.2146 32.618C12.5083 30.9797 12.9724 30.7828 14.0622 31.4297C14.7302 31.8234 15.4896 32.618 16.6708 34.1789C17.9505 35.8664 18.0771 36 18.4357 36C18.5833 36 18.8294 35.9367 18.9771 35.8664C19.4622 35.6133 23.5755 32.2242 23.7372 31.9359C23.8216 31.7953 26.1419 26.3742 28.8982 19.8984C31.6614 13.4227 33.9255 8.10703 33.9396 8.09297C34.0029 8.00859 34.3966 8.50078 34.4599 8.73985C34.5583 9.10547 34.495 9.26719 33.8622 10.2656C33.3138 11.1305 32.7654 12.1781 32.456 12.9516C32.0341 14.0133 31.7318 15.5602 31.6966 16.8188C31.6755 17.4867 31.6825 17.5008 31.8794 17.7117C32.0482 17.8875 32.1466 17.9297 32.3857 17.9297C32.9341 17.9297 33.1802 17.543 33.1872 16.6781C33.1872 16.2 33.37 15.075 33.5388 14.4492C33.8341 13.3875 34.4247 12.15 35.2825 10.807C35.7818 10.0266 35.845 9.88594 35.9364 9.35156C36.0982 8.36016 35.6693 7.43203 34.7904 6.84141C34.5372 6.67266 34.5372 6.66563 34.6357 6.43359C34.8536 5.91328 34.713 5.16797 34.3333 4.76719C34.1224 4.54922 34.1154 4.59844 34.5583 3.52266C34.8466 2.81953 34.8888 2.65781 34.8888 2.20781C34.8888 1.35703 34.4739 0.646877 33.7357 0.246094C33.4263 0.077343 33.2646 0.0351562 32.7654 0.0210953C32.3716 0.00703049 32.0763 0.0351562 31.9005 0.0984383ZM32.9763 1.89844C33.0536 1.97578 33.1169 2.10234 33.1169 2.17969C33.1169 2.32031 32.5896 3.64922 32.4982 3.74063C32.47 3.76172 32.2732 3.69844 32.0552 3.6L31.6544 3.41016L31.9568 2.7211C32.1185 2.34141 32.3013 1.96875 32.3646 1.89141C32.5193 1.71563 32.8005 1.72266 32.9763 1.89844ZM31.4364 5.31563L32.8849 5.94141L32.5896 6.64453C32.4279 7.03125 31.7177 8.69766 31.0146 10.343L29.7349 13.3453L28.2443 12.7055C27.4216 12.3539 26.7396 12.0586 26.7255 12.0445C26.7114 12.0375 27.3372 10.5258 28.1247 8.70469C29.9669 4.41563 29.8685 4.62656 29.9318 4.65469C29.9669 4.67578 30.6419 4.97109 31.4364 5.31563ZM27.6114 14.0555C28.7646 14.5547 29.0739 14.7164 29.0669 14.8148C29.0599 14.9555 22.3802 30.6562 22.2888 30.7547C22.2536 30.7828 21.9724 30.7617 21.6419 30.6914C20.6224 30.4875 19.2161 29.693 19.2864 29.3625C19.3005 29.2852 20.8122 25.7344 22.6404 21.4805C24.4614 17.2266 25.9872 13.6758 26.0224 13.5844C26.0575 13.5 26.0927 13.4297 26.1138 13.4297C26.1279 13.4297 26.8029 13.7109 27.6114 14.0555ZM7.81145 25.6289C8.21223 25.7766 8.69036 26.1773 8.86614 26.5289C9.40051 27.5625 8.50051 28.8211 5.76536 30.8742L4.83723 31.5773L4.66145 31.3453C4.37317 30.9586 4.01458 30.1922 3.90207 29.7281C3.61379 28.5047 3.9302 27.4289 4.85129 26.5008C5.73723 25.6078 6.83411 25.2844 7.81145 25.6289ZM20.3552 31.8867C20.5521 31.957 20.7349 32.0344 20.763 32.0625C20.7911 32.0906 20.5029 32.3648 20.1161 32.6813L19.42 33.2508L19.3779 32.9906C19.3568 32.85 19.3216 32.4211 19.3005 32.0484L19.2513 31.3664L19.631 31.5633C19.8349 31.6758 20.1654 31.8234 20.3552 31.8867Z" fill="#C9C9C9"/>
</g>
<defs>
<clipPath id="clip0_244_1254">
<rect width="36" height="36" fill="white"/>
</clipPath>
</defs>
</svg>
