<svg width="33" height="33" viewBox="0 0 33 33" fill="none" xmlns="http://www.w3.org/2000/svg">
<path d="M15.017 3.22272C12.2842 3.80924 10.1895 5.80729 9.47405 8.50787C9.26135 9.31998 9.22268 10.8926 9.3967 11.7305C9.98323 14.5407 11.9426 16.5967 14.7399 17.3444C15.5069 17.5506 17.0924 17.5893 17.9174 17.4153C20.8371 16.803 22.9899 14.6631 23.5957 11.7628C23.8535 10.5253 23.7311 8.98483 23.267 7.7151C22.442 5.45279 20.4053 3.7319 17.9496 3.21627C17.1698 3.05514 15.784 3.05514 15.017 3.22272ZM17.9496 5.41412C19.3805 5.85885 20.502 6.83854 21.1272 8.18561C21.4623 8.90104 21.5912 9.50045 21.5912 10.3319C21.5912 12.2719 20.5149 14.0057 18.7875 14.863C18.0012 15.2497 17.3567 15.4044 16.5188 15.4044C15.6873 15.4044 15.0879 15.2755 14.3725 14.9403C13.2832 14.4376 12.4776 13.6577 11.949 12.6006C11.5623 11.8143 11.4076 11.1698 11.4076 10.3319C11.4076 9.45533 11.543 8.8817 11.9233 8.08893C12.4647 6.98033 13.1672 6.27779 14.2758 5.73639C15.4682 5.15631 16.7444 5.04674 17.9496 5.41412Z" fill="#AEAEAE"/>
<path d="M8.86827 16.4347C8.50733 16.5508 7.59854 17.5498 6.93468 18.5746C6.22569 19.6703 5.63917 21.1011 5.34913 22.4611C5.14933 23.4021 5.09776 25.1166 5.25245 25.5935C5.42003 26.0963 5.64562 26.4572 6.10323 26.947C7.26339 28.1717 9.55792 29.132 12.497 29.609C14.0245 29.8603 15.0816 29.9248 17.0925 29.8861C19.3548 29.841 20.5407 29.6927 22.339 29.2287C25.2974 28.4617 27.1794 27.2177 27.7208 25.6644C27.8433 25.3357 27.8497 25.1875 27.8239 24.2013C27.7982 23.4408 27.7466 22.9123 27.6499 22.4611C27.2181 20.4373 26.2191 18.4843 24.8849 17.0664C24.3306 16.4734 24.1566 16.3703 23.7376 16.3703C23.1382 16.3703 22.6935 16.8021 22.687 17.3822C22.687 17.7818 22.7644 17.9301 23.2671 18.4715C24.7237 20.0377 25.6003 22.0679 25.697 24.0853C25.7421 25.0457 25.7099 25.1424 25.1556 25.6515C24.1952 26.5345 22.0038 27.2951 19.5288 27.6174C17.8079 27.8429 15.146 27.8429 13.4831 27.6238C10.9888 27.2886 8.82315 26.5345 7.86925 25.6773C7.34073 25.1939 7.28272 25.0715 7.28272 24.3754C7.28272 22.4353 8.21729 20.115 9.61593 18.5875C10.2089 17.9494 10.2476 17.8785 10.2476 17.4595C10.2476 17.0664 10.1058 16.7828 9.7964 16.5508C9.60304 16.4154 9.12608 16.3509 8.86827 16.4347Z" fill="#AEAEAE"/>
</svg>
