<svg width="26" height="26" viewBox="0 0 26 26" fill="none" xmlns="http://www.w3.org/2000/svg">
<g clip-path="url(#clip0_242_946)">
<path d="M12.3652 0.0660172C11.893 0.223438 11.6848 0.391016 10.5879 1.47266C8.91211 3.12305 8.85117 3.14844 6.57617 3.14844C5.41328 3.14844 5.0375 3.16367 4.79883 3.22461C3.97109 3.44297 3.35664 4.09297 3.19922 4.92578C3.17383 5.07305 3.14844 5.83477 3.14844 6.62188C3.14844 8.84609 3.11797 8.92227 1.46758 10.593C0.497656 11.573 0.335156 11.7609 0.192969 12.0656C0.0355469 12.3957 0.0253906 12.4465 0.0253906 13C0.0253906 13.5535 0.0355469 13.6043 0.192969 13.9344C0.335156 14.2391 0.497656 14.427 1.4625 15.407C3.11797 17.0879 3.14844 17.1539 3.14844 19.4289C3.14844 21.0285 3.17891 21.2672 3.43789 21.7445C3.59531 22.034 4.01172 22.4453 4.30625 22.5926C4.7582 22.8211 5.01211 22.8516 6.55078 22.8516C8.84609 22.8516 8.91719 22.882 10.593 24.5375C11.573 25.5023 11.7609 25.6648 12.0656 25.807C12.3957 25.9645 12.4465 25.9746 13 25.9746C13.5535 25.9746 13.6043 25.9645 13.9344 25.807C14.2391 25.6648 14.427 25.5023 15.407 24.5375C17.0828 22.882 17.1539 22.8516 19.4492 22.8516C20.9879 22.8516 21.2418 22.8211 21.6937 22.5926C21.9883 22.4453 22.4047 22.034 22.5621 21.7445C22.8211 21.2672 22.8516 21.0285 22.8516 19.4492C22.8516 17.1539 22.882 17.0828 24.5375 15.407C25.5023 14.427 25.6648 14.2391 25.807 13.9344C25.9645 13.6043 25.9746 13.5535 25.9746 13C25.9746 12.4465 25.9645 12.3957 25.807 12.0656C25.6648 11.7609 25.5023 11.573 24.5375 10.593C22.882 8.91719 22.8516 8.84609 22.8516 6.55078C22.8516 4.97149 22.8211 4.73281 22.5621 4.25547C22.4047 3.96602 21.9883 3.55469 21.6937 3.40742C21.2418 3.17891 20.9879 3.14844 19.4492 3.14844C17.1539 3.14844 17.0828 3.11797 15.407 1.4625C14.4219 0.492579 14.2391 0.335157 13.9344 0.19297C13.6246 0.0457039 13.5281 0.0253906 13.0762 0.0152359C12.7562 0.00507927 12.4922 0.0253906 12.3652 0.0660172ZM15.3766 13.7465L11.2988 17.8242L8.92734 15.4527L6.55078 13.0762L7.28711 12.3398L8.02344 11.6035L9.64844 13.2285L11.2734 14.8535L14.6098 11.5172L17.9512 8.17578L18.6977 8.92227L19.4492 9.67383L15.3766 13.7465Z" fill="#2178DE"/>
</g>
<defs>
<clipPath id="clip0_242_946">
<rect width="26" height="26" fill="white"/>
</clipPath>
</defs>
</svg>
