<svg width="34" height="34" viewBox="0 0 34 34" fill="none" xmlns="http://www.w3.org/2000/svg">
<path d="M9.86137 1.71992C9.68207 1.79961 9.45629 2.05195 9.36996 2.27773C9.32348 2.39062 9.29691 3.00156 9.29691 3.75859V5.04688H8.00199C6.59418 5.04688 6.40824 5.08008 6.10941 5.41211L5.9434 5.59141L5.92347 17.6707L5.91019 29.75H4.05746C2.28441 29.75 2.20472 29.7566 2.03207 29.8895C1.53402 30.2812 1.55394 31.025 2.07191 31.3438C2.29105 31.4766 2.3641 31.4766 17 31.4766C31.636 31.4766 31.709 31.4766 31.9282 31.3438C32.4461 31.025 32.4661 30.2812 31.968 29.8895C31.7954 29.7566 31.7157 29.75 29.9426 29.75H28.0899L28.0766 17.6707L28.0567 5.59141L27.8907 5.41211C27.5918 5.08008 27.4059 5.04688 25.9981 5.04688H24.7032V3.75195C24.7032 2.34414 24.67 2.1582 24.3379 1.85938L24.1586 1.69336L17.0797 1.68008C13.1817 1.67344 9.93441 1.69336 9.86137 1.71992ZM22.9102 4.25V5.04688H17H11.0899V4.25V3.45312H17H22.9102V4.25ZM26.2969 18.2949V29.75H24.6368H22.9766V26.6422C22.9766 23.6473 22.97 23.5344 22.8438 23.3219C22.5848 22.8969 22.784 22.9102 17 22.9102C11.2161 22.9102 11.4153 22.8969 11.1563 23.3219C11.0301 23.5344 11.0235 23.6473 11.0235 26.6422V29.75H9.36332H7.70316V18.2949V6.83984H17H26.2969V18.2949ZM16.1368 27.2266V29.75H14.4434H12.75V27.2266V24.7031H14.4434H16.1368V27.2266ZM21.25 27.2266V29.75H19.5567H17.8633V27.2266V24.7031H19.5567H21.25V27.2266Z" fill="#D9D9D9"/>
<path d="M9.85492 9.3892C9.25062 9.65483 9.14437 10.3919 9.63578 10.8634L9.835 11.056L11.7873 11.0759C13.9655 11.0958 14.0983 11.0759 14.344 10.6775C14.583 10.2857 14.4635 9.70131 14.0916 9.44897C13.9323 9.34272 13.7198 9.32944 11.9866 9.31616C10.4725 9.30287 10.0143 9.31616 9.85492 9.3892Z" fill="#D9D9D9"/>
<path d="M20.1543 9.34272C19.6098 9.48881 19.3508 10.1728 19.6563 10.6775C19.902 11.0759 20.0348 11.0958 22.2196 11.0759L24.1852 11.056L24.4043 10.8103C24.6965 10.4982 24.7563 10.1794 24.5969 9.85405C24.5239 9.71459 24.3844 9.54194 24.2848 9.46889C24.1055 9.33608 23.9992 9.32944 22.193 9.31616C21.1438 9.31616 20.2274 9.3228 20.1543 9.34272Z" fill="#D9D9D9"/>
<path d="M9.85492 13.6392C9.25062 13.9048 9.14437 14.6419 9.63578 15.1134L9.835 15.306L11.7873 15.3259C13.9655 15.3458 14.0983 15.3259 14.344 14.9275C14.583 14.5357 14.4635 13.9513 14.0916 13.699C13.9323 13.5927 13.7198 13.5794 11.9866 13.5662C10.4725 13.5529 10.0143 13.5662 9.85492 13.6392Z" fill="#D9D9D9"/>
<path d="M20.1543 13.5927C19.6098 13.7388 19.3508 14.4228 19.6563 14.9275C19.902 15.3259 20.0348 15.3458 22.2196 15.3259L24.1852 15.306L24.4043 15.0603C24.6965 14.7482 24.7563 14.4294 24.5969 14.104C24.5239 13.9646 24.3844 13.7919 24.2848 13.7189C24.1055 13.5861 23.9992 13.5794 22.193 13.5662C21.1438 13.5662 20.2274 13.5728 20.1543 13.5927Z" fill="#D9D9D9"/>
<path d="M9.85492 17.8892C9.25062 18.1548 9.14437 18.8919 9.63578 19.3634L9.835 19.556L11.7873 19.5759C13.9655 19.5958 14.0983 19.5759 14.344 19.1775C14.583 18.7857 14.4635 18.2013 14.0916 17.949C13.9323 17.8427 13.7198 17.8294 11.9866 17.8162C10.4725 17.8029 10.0143 17.8162 9.85492 17.8892Z" fill="#D9D9D9"/>
<path d="M20.1543 17.8427C19.6098 17.9888 19.3508 18.6728 19.6563 19.1775C19.902 19.5759 20.0348 19.5958 22.2196 19.5759L24.1852 19.556L24.4043 19.3103C24.6965 18.9982 24.7563 18.6794 24.5969 18.354C24.5239 18.2146 24.3844 18.0419 24.2848 17.9689C24.1055 17.8361 23.9992 17.8294 22.193 17.8162C21.1438 17.8162 20.2274 17.8228 20.1543 17.8427Z" fill="#D9D9D9"/>
</svg>
