<svg width="20" height="20" viewBox="0 0 20 20" fill="none" xmlns="http://www.w3.org/2000/svg">
<g clip-path="url(#clip0_457_2792)">
<path d="M11.9531 18.9844C11.125 18.8555 10.4883 18.3516 10.1797 17.5664C10.1016 17.3672 10.0625 17.1836 10.0352 16.8359C9.96484 15.9727 9.8125 15.707 8.75 14.5859C7.94531 13.7422 7.64453 13.3398 7.28516 12.6172C7 12.043 6.75 11.6406 6.625 11.5508C6.53906 11.4883 6.43359 11.4648 6.18359 11.4531L5.85938 11.4336V11.8516V12.2656H2.92969H0V6.62109V0.976562H2.92969H5.85938V1.32812C5.85938 1.52344 5.86719 1.67969 5.87891 1.67969C5.89062 1.67969 6.01953 1.60156 6.16797 1.50781C6.50391 1.29297 6.75391 1.16406 7.03125 1.07031C7.23828 1 7.44531 0.996094 12.1289 0.996094C17.5039 0.996094 17.1602 0.980469 17.6758 1.24609C18.3438 1.58984 18.7617 2.28516 18.7617 3.0625C18.7617 3.46484 18.7148 3.66406 18.5469 4.01172L18.4258 4.25781L18.6367 4.48438C19.2266 5.11719 19.3516 6.10938 18.9453 6.86328L18.8398 7.06641L19.0195 7.25391C19.2695 7.51172 19.4375 7.82031 19.5312 8.1875C19.6602 8.69531 19.6094 9.18359 19.375 9.64844L19.25 9.89453L19.4258 10.0742C19.8242 10.4844 20 10.918 20 11.5C20 12.1211 19.8281 12.5547 19.4141 12.9688C19.2734 13.1133 19.0547 13.2812 18.9219 13.3516C18.4688 13.5859 18.4062 13.5938 16.0195 13.5938C14.3047 13.5938 13.8633 13.6055 13.8789 13.6445C14.2812 14.5547 14.4961 15.582 14.5 16.6016C14.5039 17.2461 14.4492 17.4883 14.1953 17.918C13.7422 18.6758 12.8203 19.1133 11.9531 18.9844ZM12.7422 17.5156C12.832 17.4531 12.9609 17.3242 13.0273 17.2305L13.1445 17.0625L13.1406 16.5117C13.1367 15.5938 12.918 14.7188 12.4883 13.8906C12.3359 13.5977 12.1602 13.3594 11.7656 12.8945L11.2461 12.2852L14.6953 12.2656C18.4609 12.2461 18.2461 12.2578 18.4648 12.0234C18.8125 11.6523 18.6914 11.0703 18.2227 10.8555C18.0781 10.7891 17.9258 10.7812 15.9883 10.7812H13.9062V10.1172V9.45312H15.7344C16.8867 9.45312 17.6133 9.4375 17.707 9.41016C17.8906 9.35938 18.1211 9.16406 18.1875 8.99609C18.3359 8.64453 18.1797 8.21484 17.8438 8.05078C17.6758 7.96875 17.6328 7.96875 15.7891 7.96875H13.9062V7.30469V6.64453L15.5977 6.63281L17.2852 6.62109L17.4492 6.52734C17.6484 6.41406 17.7578 6.26953 17.8203 6.03906C17.9023 5.73047 17.7383 5.39453 17.418 5.23438C17.2773 5.16016 17.1797 5.15625 15.5859 5.15625H13.9062V4.47266V3.78906H15.3906C16.793 3.78906 16.8867 3.78516 17.0273 3.71094C17.5469 3.44531 17.543 2.67969 17.0234 2.42578L16.8516 2.34375H12.1562C8.25781 2.34375 7.4375 2.35156 7.33203 2.39844C7.26172 2.42578 7.00391 2.57812 6.75781 2.73047C6.51172 2.88281 6.21094 3.04688 6.08594 3.09375L5.85938 3.17578V6.64062V10.1055L6.32031 10.125C7.30859 10.1719 7.70312 10.4883 8.37891 11.8008C8.78516 12.5859 9.03125 12.9141 9.80469 13.7305C10.5234 14.4922 10.8086 14.8555 11.0352 15.3242C11.2461 15.7695 11.3203 16.0469 11.3633 16.5938C11.3984 17.0312 11.4219 17.1133 11.5938 17.3398C11.8359 17.6641 12.4062 17.7539 12.7422 17.5156ZM4.49219 6.62109V2.34375H2.91016H1.32812V6.62109V10.8984H2.91016H4.49219V6.62109Z" fill="#B8B8B8"/>
<path d="M2.63622 4.33544C2.56982 4.3159 2.46044 4.24559 2.39403 4.17919C2.00732 3.80028 2.19091 3.16356 2.71825 3.04637C2.89403 3.00731 3.14013 3.05809 3.26903 3.15965C3.50341 3.35497 3.58544 3.72606 3.44872 4.01122C3.32372 4.27684 2.94091 4.42919 2.63622 4.33544Z" fill="#B8B8B8"/>
</g>
<defs>
<clipPath id="clip0_457_2792">
<rect width="20" height="20" fill="white" transform="matrix(1 0 0 -1 0 20)"/>
</clipPath>
</defs>
</svg>
