<svg width="20" height="20" viewBox="0 0 20 20" fill="none" xmlns="http://www.w3.org/2000/svg">
<g id="fav">
<g id="Black">
<path id="Vector" d="M3.40625 0.703386C3.33594 0.746355 3.24609 0.836199 3.20312 0.906511C3.125 1.03542 3.125 1.12526 3.125 10.0042V18.9729L3.21484 19.1018C3.26172 19.176 3.35938 19.2659 3.42578 19.3089C3.55469 19.3831 3.82812 19.4065 3.98828 19.3557C4.03516 19.3401 5.39062 18.2737 7 16.9846C8.60938 15.6995 9.94922 14.637 9.97656 14.6253C10.0039 14.6135 11.3477 15.6604 12.9609 16.9495C14.5742 18.2385 15.9297 19.3128 15.9727 19.3323C16.0156 19.3557 16.1445 19.3753 16.2578 19.3753C16.5039 19.3753 16.6836 19.2815 16.7969 19.094C16.875 18.9651 16.875 18.8753 16.875 10.0003C16.875 1.12526 16.875 1.03542 16.7969 0.906511C16.7539 0.836199 16.6641 0.746355 16.5938 0.703386C16.4648 0.625261 16.3828 0.625261 10 0.625261C3.61719 0.625261 3.53516 0.625261 3.40625 0.703386ZM15.625 9.62917C15.625 13.8948 15.6172 17.3831 15.6055 17.3831C15.5938 17.3831 14.4414 16.4651 13.0391 15.344C11.6406 14.2268 10.4336 13.2659 10.3594 13.2151C10.2109 13.1174 9.86719 13.0901 9.72266 13.1682C9.67969 13.1878 8.46875 14.1487 7.03125 15.2971C5.59375 16.4456 4.40625 17.3831 4.39453 17.3831C4.38281 17.3831 4.375 13.8948 4.375 9.62917V1.87526H10H15.625V9.62917Z" fill="#121212"/>
</g>
</g>
</svg>
