<svg width="23" height="23" viewBox="0 0 23 23" fill="none" xmlns="http://www.w3.org/2000/svg">
<g id="fav">
<g id="Black">
<path id="Vector" d="M3.91719 0.808699C3.83633 0.858114 3.73301 0.961433 3.68359 1.04229C3.59375 1.19053 3.59375 1.29386 3.59375 11.5046V21.8187L3.69707 21.9669C3.75098 22.0523 3.86328 22.1556 3.93965 22.205C4.08789 22.2903 4.40234 22.3173 4.58652 22.2589C4.64043 22.2409 6.19922 21.0146 8.05 19.5321C9.90078 18.0542 11.4416 16.8323 11.473 16.8189C11.5045 16.8054 13.0498 18.0093 14.9051 19.4917C16.7604 20.9741 18.3191 22.2095 18.3686 22.2319C18.418 22.2589 18.5662 22.2814 18.6965 22.2814C18.9795 22.2814 19.1861 22.1735 19.3164 21.9579C19.4062 21.8097 19.4062 21.7064 19.4062 11.5001C19.4062 1.29386 19.4062 1.19053 19.3164 1.04229C19.267 0.961433 19.1637 0.858114 19.0828 0.808699C18.9346 0.718855 18.8402 0.718855 11.5 0.718855C4.15977 0.718855 4.06543 0.718855 3.91719 0.808699ZM17.9688 11.0733C17.9688 15.9788 17.9598 19.9903 17.9463 19.9903C17.9328 19.9903 16.6076 18.9347 14.9949 17.6454C13.3867 16.3607 11.9986 15.2556 11.9133 15.1972C11.7426 15.0849 11.3473 15.0534 11.1811 15.1433C11.1316 15.1657 9.73906 16.2708 8.08594 17.5915C6.43281 18.9122 5.06719 19.9903 5.05371 19.9903C5.04023 19.9903 5.03125 15.9788 5.03125 11.0733V2.15635H11.5H17.9688V11.0733Z" fill="#121212"/>
</g>
</g>
</svg>
