<svg width="17" height="23" viewBox="0 0 17 23" fill="none" xmlns="http://www.w3.org/2000/svg">
<path d="M0.917187 0.808699C0.836328 0.858113 0.733008 0.961434 0.683594 1.04229C0.59375 1.19054 0.59375 1.29386 0.59375 11.5046V21.8187L0.69707 21.9669C0.750977 22.0523 0.863281 22.1556 0.939648 22.205C1.08789 22.2903 1.40234 22.3173 1.58652 22.2589C1.64043 22.2409 3.19922 21.0146 5.05 19.5321C6.90078 18.0542 8.4416 16.8323 8.47305 16.8189C8.50449 16.8054 10.0498 18.0093 11.9051 19.4917C13.7604 20.9741 15.3191 22.2095 15.3686 22.2319C15.418 22.2589 15.5662 22.2814 15.6965 22.2814C15.9795 22.2814 16.1861 22.1735 16.3164 21.9579C16.4062 21.8097 16.4062 21.7064 16.4062 11.5001C16.4062 1.29386 16.4062 1.19054 16.3164 1.04229C16.267 0.961434 16.1637 0.858113 16.0828 0.808699C15.9346 0.718855 15.8402 0.718855 8.5 0.718855C1.15977 0.718855 1.06543 0.718855 0.917187 0.808699ZM5.08594 10.5C5.08594 15.4055 14.9598 19.9903 14.9463 19.9903C14.9328 19.9903 13.6076 18.9347 11.9949 17.6454C10.3867 16.3607 8.99863 15.2556 8.91328 15.1972C8.74258 15.0849 8.34727 15.0534 8.18105 15.1433C8.13164 15.1657 6.73906 16.2708 5.08594 17.5915C3.43281 18.9122 2.06719 19.9903 2.05371 19.9903C2.04023 19.9903 11.5 15.4055 11.5 10.5L2.03125 2.15635L8.47305 10.5L14.9688 2.15635L5.08594 10.5Z" fill="#0F77F2"/>
</svg>
