<svg width="16" height="16" viewBox="0 0 16 16" fill="none" xmlns="http://www.w3.org/2000/svg">
<g id="tg">
<g id="Black">
<path id="Vector" d="M15.2031 1.10645C15.1 1.13145 13.3844 1.79082 11.3906 2.57207C9.39688 3.35332 6.12813 4.6377 4.125 5.42207C2.12188 6.20645 0.428125 6.88145 0.35625 6.92207C0.2875 6.9627 0.178125 7.05332 0.115625 7.12207C0.015625 7.23457 0 7.26895 0 7.40645C0 7.6752 0.15625 7.8877 0.4625 8.04395C0.51875 8.0752 1.35938 8.36582 2.33125 8.69082L4.09688 9.28457L8.63438 6.40332C11.1313 4.81582 13.2375 3.49395 13.3156 3.45957C13.5156 3.3752 13.625 3.40332 13.625 3.5377C13.625 3.62207 13.5844 3.67832 13.3625 3.8877C13.2188 4.02832 11.5594 5.5252 9.67813 7.21895C6.4875 10.0877 6.25938 10.3002 6.30625 10.3471C6.4875 10.5252 12.1625 14.8283 12.2656 14.8658C12.4375 14.9314 12.8281 14.9314 12.975 14.8658C13.1344 14.7971 13.3844 14.5564 13.4469 14.4158C13.5156 14.2564 16 1.70645 16 1.51895C16 1.34707 15.9344 1.21895 15.8125 1.14707C15.6906 1.0752 15.4219 1.05645 15.2031 1.10645Z" fill="white"/>
</g>
</g>
</svg>
