<svg width="18" height="18" viewBox="0 0 18 18" fill="none" xmlns="http://www.w3.org/2000/svg">
<g id="vk" clip-path="url(#clip0_241_241)">
<g id="Black">
<path id="Vector" d="M7.85742 3.94481C6.67617 3.9867 6.27891 4.10537 6.00117 4.49977C5.90977 4.62891 5.92734 4.6673 6.11016 4.70569C6.48281 4.78597 6.74648 4.96746 6.8625 5.21876C7.08398 5.72136 7.14375 6.93249 6.99961 8.02494C6.92578 8.56594 6.78516 8.85912 6.57422 8.90449C6.29648 8.96383 5.82891 8.58339 5.43164 7.97608C5.11523 7.49442 4.2293 5.79466 3.9375 5.11057C3.75469 4.68126 3.67734 4.57655 3.45938 4.46486L3.28711 4.37761L1.88086 4.38808C1.10742 4.39157 0.414844 4.40553 0.341016 4.416C0.267188 4.42647 0.161719 4.47534 0.105469 4.5242C0.0140625 4.5975 0 4.63589 0 4.78946C0 4.93605 0.0492188 5.07217 0.284766 5.59571C1.17422 7.55725 2.17266 9.29191 3.22734 10.709C4.06758 11.8398 4.57031 12.3668 5.27695 12.8625C6.27539 13.564 7.02773 13.8991 7.92773 14.0457C8.35664 14.1155 9.94219 14.1155 10.1355 14.0492C10.4414 13.9375 10.5152 13.7944 10.5504 13.208C10.5926 12.5099 10.7508 12.0981 11.0672 11.8538C11.3766 11.6164 11.6824 11.8049 12.5227 12.7438C13.0781 13.3651 13.3594 13.6373 13.6371 13.8118C13.8516 13.9479 14.1574 14.0736 14.3648 14.1155C14.5266 14.1434 15.4934 14.1399 16.7063 14.1015L17.5746 14.0736L17.7434 13.9724C17.9367 13.8537 18 13.7525 18 13.5535C18 13.037 17.543 12.4122 16.1543 11.044C15.1277 10.0318 15.0574 9.93761 15.0926 9.62C15.1242 9.37568 15.2367 9.20466 16.1543 7.99004C17.3426 6.41942 17.7363 5.80862 17.9332 5.23621C18.0246 4.97444 18.0211 4.67428 17.9297 4.57655C17.7539 4.39157 17.7293 4.38808 15.8906 4.39506C14.8992 4.39506 14.1328 4.41251 14.0555 4.43345C13.8762 4.47883 13.7813 4.60797 13.6055 5.04425C13.5211 5.25367 13.2961 5.73183 13.1063 6.10529C12.4066 7.49442 11.5875 8.62876 11.1199 8.85214C11.018 8.90449 11.0004 8.901 10.8738 8.83818C10.7859 8.7928 10.7156 8.71602 10.6629 8.6148C10.5223 8.34605 10.5082 8.02843 10.5504 6.43687C10.5926 4.86276 10.582 4.69173 10.4309 4.39855C10.3887 4.31129 10.3113 4.21007 10.2621 4.17517C10.1285 4.07744 9.67148 3.97972 9.26367 3.95877C9.07031 3.9483 8.83477 3.93434 8.73633 3.92736C8.64141 3.92387 8.24414 3.93085 7.85742 3.94481Z" fill="white"/>
</g>
</g>
<defs>
<clipPath id="clip0_241_241">
<rect width="18" height="18" fill="white"/>
</clipPath>
</defs>
</svg>
