<svg width="20" height="20" viewBox="0 0 20 20" fill="none" xmlns="http://www.w3.org/2000/svg">
<g clip-path="url(#clip0_457_2786)">
<path d="M11.9531 1.01562C11.125 1.14453 10.4883 1.64844 10.1797 2.43359C10.1016 2.63281 10.0625 2.81641 10.0352 3.16406C9.96484 4.02734 9.8125 4.29297 8.75 5.41406C7.94531 6.25781 7.64453 6.66016 7.28516 7.38281C7 7.95703 6.75 8.35938 6.625 8.44922C6.53906 8.51172 6.43359 8.53516 6.18359 8.54688L5.85938 8.56641V8.14844V7.73438H2.92969H0V13.3789V19.0234H2.92969H5.85938V18.6719C5.85938 18.4766 5.86719 18.3203 5.87891 18.3203C5.89062 18.3203 6.01953 18.3984 6.16797 18.4922C6.50391 18.707 6.75391 18.8359 7.03125 18.9297C7.23828 19 7.44531 19.0039 12.1289 19.0039C17.5039 19.0039 17.1602 19.0195 17.6758 18.7539C18.3438 18.4102 18.7617 17.7148 18.7617 16.9375C18.7617 16.5352 18.7148 16.3359 18.5469 15.9883L18.4258 15.7422L18.6367 15.5156C19.2266 14.8828 19.3516 13.8906 18.9453 13.1367L18.8398 12.9336L19.0195 12.7461C19.2695 12.4883 19.4375 12.1797 19.5312 11.8125C19.6602 11.3047 19.6094 10.8164 19.375 10.3516L19.25 10.1055L19.4258 9.92578C19.8242 9.51562 20 9.08203 20 8.5C20 7.87891 19.8281 7.44531 19.4141 7.03125C19.2734 6.88672 19.0547 6.71875 18.9219 6.64844C18.4688 6.41406 18.4062 6.40625 16.0195 6.40625C14.3047 6.40625 13.8633 6.39453 13.8789 6.35547C14.2812 5.44531 14.4961 4.41797 14.5 3.39844C14.5039 2.75391 14.4492 2.51172 14.1953 2.08203C13.7422 1.32422 12.8203 0.886719 11.9531 1.01562ZM12.7422 2.48438C12.832 2.54688 12.9609 2.67578 13.0273 2.76953L13.1445 2.9375L13.1406 3.48828C13.1367 4.40625 12.918 5.28125 12.4883 6.10938C12.3359 6.40234 12.1602 6.64062 11.7656 7.10547L11.2461 7.71484L14.6953 7.73438C18.4609 7.75391 18.2461 7.74219 18.4648 7.97656C18.8125 8.34766 18.6914 8.92969 18.2227 9.14453C18.0781 9.21094 17.9258 9.21875 15.9883 9.21875H13.9062V9.88281V10.5469H15.7344C16.8867 10.5469 17.6133 10.5625 17.707 10.5898C17.8906 10.6406 18.1211 10.8359 18.1875 11.0039C18.3359 11.3555 18.1797 11.7852 17.8438 11.9492C17.6758 12.0312 17.6328 12.0312 15.7891 12.0312H13.9062V12.6953V13.3555L15.5977 13.3672L17.2852 13.3789L17.4492 13.4727C17.6484 13.5859 17.7578 13.7305 17.8203 13.9609C17.9023 14.2695 17.7383 14.6055 17.418 14.7656C17.2773 14.8398 17.1797 14.8438 15.5859 14.8438H13.9062V15.5273V16.2109H15.3906C16.793 16.2109 16.8867 16.2148 17.0273 16.2891C17.5469 16.5547 17.543 17.3203 17.0234 17.5742L16.8516 17.6562H12.1562C8.25781 17.6562 7.4375 17.6484 7.33203 17.6016C7.26172 17.5742 7.00391 17.4219 6.75781 17.2695C6.51172 17.1172 6.21094 16.9531 6.08594 16.9062L5.85938 16.8242V13.3594V9.89453L6.32031 9.875C7.30859 9.82812 7.70312 9.51172 8.37891 8.19922C8.78516 7.41406 9.03125 7.08594 9.80469 6.26953C10.5234 5.50781 10.8086 5.14453 11.0352 4.67578C11.2461 4.23047 11.3203 3.95312 11.3633 3.40625C11.3984 2.96875 11.4219 2.88672 11.5938 2.66016C11.8359 2.33594 12.4062 2.24609 12.7422 2.48438ZM4.49219 13.3789V17.6562H2.91016H1.32812V13.3789V9.10156H2.91016H4.49219V13.3789Z" fill="#B8B8B8"/>
<path d="M2.63622 15.6646C2.56982 15.6841 2.46044 15.7544 2.39403 15.8208C2.00732 16.1997 2.19091 16.8364 2.71825 16.9536C2.89403 16.9927 3.14013 16.9419 3.26903 16.8403C3.50341 16.645 3.58544 16.2739 3.44872 15.9888C3.32372 15.7232 2.94091 15.5708 2.63622 15.6646Z" fill="#B8B8B8"/>
</g>
<defs>
<clipPath id="clip0_457_2786">
<rect width="20" height="20" fill="white"/>
</clipPath>
</defs>
</svg>
