<svg width="20" height="20" viewBox="0 0 20 20" fill="none" xmlns="http://www.w3.org/2000/svg">
<g id="location" clip-path="url(#clip0_456_825)">
<g id="Black">
<path id="Vector" d="M8.9336 0.0625C5.86329 0.539062 3.4922 2.92969 3.02735 6.00781C2.94923 6.50781 2.95313 7.55078 3.02735 8.08203C3.19532 9.21875 3.57423 10.3555 4.25782 11.7383C5.02735 13.3008 5.82032 14.5508 7.9297 17.5195C8.41798 18.207 8.98439 19.0156 9.19142 19.3164C9.40235 19.625 9.6172 19.8945 9.6836 19.9336C9.83204 20.0234 10.168 20.0234 10.3164 19.9336C10.3828 19.8945 10.5977 19.625 10.8086 19.3164C11.0156 19.0156 11.582 18.207 12.0703 17.5195C14.1797 14.5508 14.9727 13.3008 15.7422 11.7383C16.4258 10.3516 16.8008 9.23438 16.9688 8.08203C17.0469 7.54688 17.0508 6.51172 16.9727 6C16.5078 2.90625 14.1211 0.523438 11.0234 0.0585938C10.5508 -0.015625 9.40235 -0.0117188 8.9336 0.0625ZM10.8984 1.26953C13.2578 1.62109 15.1914 3.46484 15.7227 5.85938C15.7617 6.04297 15.7969 6.41797 15.8086 6.85547C15.8242 7.45703 15.8164 7.62891 15.7461 8.04688C15.5313 9.31641 14.9688 10.7305 14.0156 12.3828C13.3399 13.5586 12.5469 14.7461 10.8242 17.168C10.4102 17.7461 10.0547 18.25 10.0352 18.2812C10.0039 18.332 9.9961 18.332 9.96485 18.2812C9.94532 18.25 9.58985 17.7461 9.17579 17.168C7.45314 14.7461 6.66017 13.5586 5.98438 12.3828C5.03126 10.7305 4.46876 9.31641 4.25392 8.04688C4.1836 7.62891 4.17579 7.45703 4.19142 6.85547C4.20313 6.41797 4.23829 6.04297 4.27735 5.85938C4.66798 4.09766 5.82423 2.60547 7.40235 1.81641C8.51564 1.26172 9.65626 1.08594 10.8984 1.26953Z" fill="#777777"/>
<path id="Vector_2" d="M9.11328 3.61328C7.86719 3.93359 6.89453 4.91406 6.57812 6.16016C6.44531 6.6875 6.44531 7.375 6.57812 7.90234C6.89844 9.15625 7.875 10.1328 9.12891 10.4531C9.65625 10.5859 10.3437 10.5859 10.8711 10.4531C12.125 10.1328 13.1016 9.15625 13.4219 7.90234C13.5547 7.375 13.5547 6.6875 13.4219 6.16016C13.1016 4.90234 12.1289 3.92969 10.8711 3.60938C10.3477 3.47656 9.63281 3.48047 9.11328 3.61328ZM10.6836 4.82422C11.4258 5.05078 12.043 5.69922 12.2461 6.46484C12.3203 6.76172 12.3203 7.30078 12.2461 7.59766C12.1016 8.14453 11.7227 8.66406 11.2383 8.98438C10.6758 9.35156 9.92187 9.44922 9.28906 9.23047C8.87891 9.08984 8.58203 8.89062 8.28906 8.57031C7.88281 8.12891 7.69531 7.63672 7.69531 7.00781C7.69531 5.6875 8.84375 4.625 10.1758 4.71875C10.2852 4.72656 10.5117 4.77344 10.6836 4.82422Z" fill="#777777"/>
</g>
</g>
<defs>
<clipPath id="clip0_456_825">
<rect width="20" height="20" fill="white"/>
</clipPath>
</defs>
</svg>
