<svg width="152" height="40" viewBox="0 0 152 40" fill="none" xmlns="http://www.w3.org/2000/svg">
<g id="logo-white" clip-path="url(#clip0_241_229)">
<path id="Vector" d="M15.6795 10.5703H5.22975L0.00488281 19.8343L4.37068 27.5711L7.3751 22.735L9.79271 24.3007L6.81646 29.1031H15.6889L20.9184 19.8391L15.6795 10.5703ZM10.2715 23.441L7.83045 21.8802C7.83045 21.8802 9.9664 18.6673 8.13089 17.6156C6.96542 16.9843 5.61377 16.8134 4.33312 17.1353V16.0836C4.33312 16.0836 8.35623 15.3056 11.2621 16.5638C14.1679 17.8221 15.3744 19.6278 15.3744 19.6278L13.229 22.6918C13.229 22.6918 11.1682 22.0243 10.2762 23.441M14.6608 24.171L13.8768 23.6187L16.4024 19.8439L17.1864 20.3962L14.6608 24.171Z" fill="white"/>
<path id="Vector_2" d="M27.6171 11.5452L29.9643 9.89795L34.546 16.7799L38.771 9.26402L33.5461 0H23.1292L17.8997 9.26402L23.1292 18.528H32.2833L27.6171 11.5452ZM30.7811 3.33293L32.8044 6.31529L31.1942 7.45828L29.1709 4.47593L30.7811 3.33293ZM23.5846 12.8707L21.5613 9.88834L23.1715 8.74535L25.1948 11.7277L23.5846 12.8707ZM23.7864 8.18346L28.4386 4.87454L30.4619 7.85689L25.8097 11.1658L23.7864 8.18346Z" fill="white"/>
<path id="Vector_3" d="M33.607 21.4766H23.1526L17.9277 30.7406L22.1855 38.2853L24.5985 34.4001L27.0161 35.9657L24.514 39.9998H33.6117L38.8554 30.7358L33.607 21.4766ZM28.6403 35.2597C27.4314 35.2597 26.272 34.7684 25.4172 33.8939C24.5623 33.0194 24.0821 31.8333 24.0821 30.5965C24.0821 29.3597 24.5623 28.1736 25.4172 27.2991C26.272 26.4246 27.4314 25.9333 28.6403 25.9333C28.8307 25.9401 29.0204 25.9594 29.2084 25.9909L26.7579 29.7657L29.7154 31.7731L32.2879 27.8159C32.7981 28.5065 33.1094 29.3294 33.1867 30.1915C33.2641 31.0536 33.1043 31.9206 32.7254 32.6948C32.3466 33.4689 31.7638 34.1193 31.0428 34.5725C30.3218 35.0258 29.4913 35.2638 28.645 35.2597" fill="white"/>
<path id="Vector_4" d="M53.0281 27.2106H46.9771V12.3613H52.6103C54.0468 12.3613 55.1062 12.7471 55.7884 13.5187C56.4212 14.2974 56.7401 15.2934 56.6804 16.3042C56.6849 16.9373 56.5434 17.5625 56.2673 18.1291C56.016 18.6402 55.6021 19.0484 55.0937 19.2865C55.8345 19.3434 56.5338 19.6587 57.0747 20.1798C57.4139 20.5373 57.6764 20.9633 57.8453 21.4305C58.0143 21.8978 58.086 22.396 58.0558 22.8932C58.0809 23.4276 57.9993 23.9617 57.8161 24.4629C57.6329 24.964 57.3519 25.4218 56.9902 25.8083C56.1045 26.7432 54.7917 27.2106 53.0516 27.2106M50.7654 15.3197V18.2012H51.4602C51.719 18.225 51.9798 18.1947 52.2267 18.1121C52.4737 18.0295 52.7016 17.8965 52.8967 17.7209C53.014 17.5924 53.1051 17.4413 53.1647 17.2764C53.2244 17.1115 53.2513 16.9361 53.2441 16.7604C53.2578 16.3927 53.1335 16.0336 52.8967 15.7567C52.4937 15.4208 51.9778 15.2604 51.4602 15.3101L50.7654 15.3197ZM50.7654 21.0827V24.1995H51.6151C52.8325 24.1995 53.6149 23.9994 53.9623 23.5992C54.1771 23.3289 54.2859 22.9865 54.2675 22.6387C54.2798 22.4438 54.2533 22.2483 54.1896 22.0642C54.1258 21.8801 54.0262 21.7112 53.8966 21.5677C53.5836 21.2475 52.8012 21.0875 51.5494 21.0875L50.7654 21.0827Z" fill="white"/>
<path id="Vector_5" d="M69.9135 27.2106L69.0216 24.7182H63.7357L62.7968 27.2106H58.8159L64.3882 12.3613H68.5005L73.9413 27.2106H69.9135ZM64.8013 21.779H68.0216L66.388 16.9765L64.8013 21.779Z" fill="white"/>
<path id="Vector_6" d="M74.6362 27.2117L80.3165 19.2876L75.6596 12.3672H80.3165L82.4712 16.2188L84.7104 12.3672H89.3485L84.6259 19.2876L90.109 27.2117H85.5413L82.4477 22.3804L79.1851 27.2117H74.6362Z" fill="white"/>
<path id="Vector_7" d="M100.23 15.6377H97.0945V27.2117H93.3296V15.6377H90.2642V12.3672H100.23V15.6377Z" fill="white"/>
<path id="Vector_8" d="M101.883 27.2106V12.3613H105.671V18.1483H107.497C109.469 18.1483 110.913 18.6078 111.83 19.5267C112.224 19.9408 112.529 20.4334 112.728 20.9739C112.927 21.5143 113.014 22.0909 112.985 22.6675C113.016 23.235 112.935 23.8031 112.748 24.3384C112.561 24.8737 112.271 25.3653 111.896 25.7843C110.982 26.7448 109.444 27.2251 107.281 27.2251L101.883 27.2106ZM105.671 24.2283H107.131C107.929 24.2283 108.472 24.0794 108.76 23.7817C108.896 23.633 109.001 23.4575 109.069 23.266C109.137 23.0745 109.166 22.8708 109.154 22.6675C109.167 22.466 109.137 22.264 109.066 22.0757C108.994 21.8874 108.884 21.7173 108.741 21.5773C108.276 21.2317 107.703 21.0728 107.131 21.1307H105.671V24.2283ZM114.182 12.3613H117.971V27.2106H114.182V12.3613Z" fill="white"/>
<path id="Vector_9" d="M122.796 27.6384C122.196 27.6384 121.621 27.3945 121.196 26.9604C120.772 26.5263 120.533 25.9375 120.533 25.3236C120.533 24.7097 120.772 24.1209 121.196 23.6868C121.621 23.2527 122.196 23.0088 122.796 23.0088C123.098 23.0089 123.396 23.0721 123.673 23.1943C123.95 23.3165 124.199 23.4952 124.406 23.7196C124.613 23.9289 124.775 24.1792 124.883 24.4551C124.991 24.7309 125.043 25.0265 125.035 25.3236C125.035 25.9334 124.8 26.5185 124.381 26.952C123.962 27.3854 123.392 27.6321 122.796 27.6384Z" fill="white"/>
<path id="Vector_10" d="M133.743 22.2927H131.373V27.2104H127.617V12.3611H133.621C134.29 12.3241 134.959 12.423 135.59 12.6522C136.221 12.8813 136.801 13.2362 137.297 13.6962C137.754 14.1689 138.11 14.7335 138.343 15.3543C138.576 15.9752 138.68 16.6387 138.649 17.3029C138.649 18.9037 138.22 20.1363 137.363 21.0008C136.505 21.8652 135.3 22.2959 133.748 22.2927M131.377 15.4779V19.1758H132.64C133.209 19.2217 133.774 19.0506 134.227 18.6956C134.397 18.5179 134.528 18.3041 134.609 18.0693C134.69 17.8345 134.72 17.5843 134.696 17.3365C134.714 17.0954 134.685 16.8531 134.61 16.6239C134.535 16.3946 134.416 16.183 134.26 16.0014C134.041 15.8057 133.785 15.6576 133.508 15.566C133.231 15.4743 132.939 15.4411 132.65 15.4683L131.377 15.4779Z" fill="white"/>
<path id="Vector_11" d="M138.574 12.3672H142.794L145.559 18.9754L147.972 12.3672H152L145.47 27.2117H141.489L143.513 23.0527L138.574 12.3672Z" fill="white"/>
</g>
<defs>
<clipPath id="clip0_241_229">
<rect width="152" height="40" fill="white"/>
</clipPath>
</defs>
</svg>
