<svg width="152" height="39" viewBox="0 0 152 39" fill="none" xmlns="http://www.w3.org/2000/svg">
<g id="logo-color 2" clip-path="url(#clip0_239_145)">
<path id="Vector" d="M15.6795 10.3057H5.22975L0.00488281 19.3381L4.37068 26.8815L7.3751 22.1663L9.79271 23.6927L6.81646 28.3752H15.6889L20.9184 19.3428L15.6795 10.3057ZM10.2715 22.8546L7.83045 21.3328C7.83045 21.3328 9.9664 18.2002 8.13089 17.1748C6.96542 16.5593 5.61377 16.3927 4.33312 16.7066V15.6811C4.33312 15.6811 8.35623 14.9225 11.2621 16.1493C14.1679 17.3761 15.3744 19.1367 15.3744 19.1367L13.229 22.1241C13.229 22.1241 11.1682 21.4733 10.2762 22.8546M14.6608 23.5663L13.8768 23.0278L16.4024 19.3474L17.1864 19.8859L14.6608 23.5663Z" fill="#0F77F2"/>
<path id="Vector_2" d="M27.6171 11.2566L29.9643 9.6505L34.546 16.3604L38.771 9.03242L33.5461 0H23.1292L17.8997 9.03242L23.1292 18.0648H32.2833L27.6171 11.2566ZM30.7811 3.24961L32.8044 6.15741L31.1942 7.27182L29.1709 4.36403L30.7811 3.24961ZM23.5846 12.5489L21.5613 9.64113L23.1715 8.52672L25.1948 11.4345L23.5846 12.5489ZM23.7864 7.97887L28.4386 4.75268L30.4619 7.66046L25.8097 10.8867L23.7864 7.97887Z" fill="#0F77F2"/>
<path id="Vector_3" d="M33.607 20.9395H23.1526L17.9277 29.9719L22.1855 37.328L24.5985 33.5399L27.0161 35.0664L24.514 38.9996H33.6117L38.8554 29.9672L33.607 20.9395ZM28.6403 34.378C27.4314 34.378 26.272 33.899 25.4172 33.0464C24.5623 32.1937 24.0821 31.0372 24.0821 29.8314C24.0821 28.6256 24.5623 27.4691 25.4172 26.6164C26.272 25.7638 27.4314 25.2848 28.6403 25.2848C28.8307 25.2914 29.0204 25.3102 29.2084 25.3409L26.7579 29.0213L29.7154 30.9786L32.2879 27.1203C32.7981 27.7937 33.1094 28.596 33.1867 29.4365C33.2641 30.2771 33.1043 31.1224 32.7254 31.8772C32.3466 32.632 31.7638 33.2661 31.0428 33.708C30.3218 34.1499 29.4913 34.382 28.645 34.378" fill="#0F77F2"/>
<path id="Vector_4" d="M53.0279 26.5308H46.9768V12.0527H52.6101C54.0466 12.0527 55.106 12.4289 55.7882 13.1812C56.4209 13.9404 56.7399 14.9115 56.6801 15.897C56.6847 16.5143 56.5431 17.1239 56.267 17.6763C56.0158 18.1746 55.6018 18.5726 55.0934 18.8048C55.8343 18.8603 56.5336 19.1677 57.0745 19.6757C57.4137 20.0243 57.6761 20.4396 57.8451 20.8952C58.014 21.3508 58.0857 21.8365 58.0556 22.3213C58.0806 22.8424 57.999 23.3631 57.8158 23.8517C57.6326 24.3404 57.3516 24.7867 56.99 25.1636C56.1043 26.0751 54.7914 26.5308 53.0514 26.5308M50.7652 14.9371V17.7466H51.46C51.7187 17.7698 51.9795 17.7402 52.2265 17.6597C52.4734 17.5792 52.7014 17.4495 52.8965 17.2783C53.0137 17.153 53.1048 17.0057 53.1645 16.8449C53.2241 16.6841 53.2511 16.5131 53.2438 16.3418C53.2576 15.9834 53.1333 15.6332 52.8965 15.3632C52.4935 15.0357 51.9775 14.8793 51.46 14.9277L50.7652 14.9371ZM50.7652 20.556V23.5949H51.6149C52.8323 23.5949 53.6147 23.3998 53.9621 23.0096C54.1769 22.7461 54.2856 22.4123 54.2672 22.0731C54.2796 21.8831 54.2531 21.6926 54.1893 21.5131C54.1256 21.3335 54.0259 21.1688 53.8964 21.029C53.5834 20.7168 52.801 20.5607 51.5492 20.5607L50.7652 20.556Z" fill="#0F77F2"/>
<path id="Vector_5" d="M69.9137 26.5308L69.0218 24.1006H63.7359L62.797 26.5308H58.8162L64.3884 12.0527H68.5007L73.9415 26.5308H69.9137ZM64.8015 21.235H68.0219L66.3882 16.5526L64.8015 21.235Z" fill="#0F77F2"/>
<path id="Vector_6" d="M74.6362 26.531L80.3165 18.805L75.6596 12.0576H80.3165L82.4712 15.8129L84.7104 12.0576H89.3485L84.6259 18.805L90.109 26.531H85.5413L82.4477 21.8205L79.1851 26.531H74.6362Z" fill="#0F77F2"/>
<path id="Vector_7" d="M100.23 15.2464H97.0945V26.531H93.3296V15.2464H90.2642V12.0576H100.23V15.2464Z" fill="#0F77F2"/>
<path id="Vector_8" d="M101.883 26.5308V12.0527H105.671V17.6951H107.497C109.469 17.6951 110.913 18.143 111.83 19.0389C112.223 19.4427 112.529 19.923 112.728 20.45C112.926 20.9769 113.014 21.539 112.985 22.1012C113.015 22.6546 112.935 23.2085 112.748 23.7304C112.561 24.2522 112.271 24.7316 111.896 25.1401C110.982 26.0766 109.444 26.5449 107.281 26.5449L101.883 26.5308ZM105.671 23.623H107.131C107.929 23.623 108.472 23.4779 108.76 23.1876C108.896 23.0426 109.001 22.8715 109.069 22.6848C109.137 22.4981 109.166 22.2995 109.154 22.1012C109.167 21.9048 109.137 21.7079 109.065 21.5243C108.994 21.3407 108.883 21.1749 108.741 21.0383C108.276 20.7014 107.703 20.5464 107.131 20.6029H105.671V23.623ZM114.182 12.0527H117.97V26.5308H114.182V12.0527Z" fill="#0F77F2"/>
<path id="Vector_9" d="M122.796 26.9475C122.196 26.9475 121.621 26.7097 121.196 26.2864C120.772 25.8632 120.533 25.2891 120.533 24.6905C120.533 24.092 120.772 23.5179 121.196 23.0946C121.621 22.6714 122.196 22.4336 122.796 22.4336C123.098 22.4337 123.396 22.4953 123.673 22.6144C123.95 22.7336 124.199 22.9079 124.406 23.1266C124.613 23.3307 124.775 23.5748 124.883 23.8437C124.991 24.1127 125.043 24.4008 125.035 24.6905C125.035 25.2851 124.8 25.8556 124.381 26.2782C123.962 26.7008 123.392 26.9413 122.796 26.9475Z" fill="#0F77F2"/>
<path id="Vector_10" d="M133.743 21.7356H131.373V26.5304H127.617V12.0523H133.621C134.29 12.0162 134.959 12.1127 135.59 12.3361C136.221 12.5595 136.801 12.9055 137.297 13.354C137.754 13.8149 138.11 14.3654 138.343 14.9707C138.576 15.576 138.68 16.223 138.649 16.8705C138.649 18.4313 138.22 19.6332 137.363 20.476C136.505 21.3188 135.3 21.7387 133.748 21.7356M131.377 15.0912V18.6967H132.64C133.209 18.7414 133.774 18.5746 134.227 18.2284C134.397 18.0552 134.528 17.8467 134.609 17.6178C134.69 17.3889 134.72 17.145 134.696 16.9033C134.714 16.6683 134.685 16.4321 134.61 16.2085C134.535 15.985 134.416 15.7786 134.26 15.6016C134.041 15.4108 133.785 15.2664 133.508 15.177C133.231 15.0877 132.939 15.0553 132.65 15.0818L131.377 15.0912Z" fill="#0F77F2"/>
<path id="Vector_11" d="M138.574 12.0576H142.794L145.559 18.5006L147.972 12.0576H152L145.47 26.531H141.489L143.513 22.476L138.574 12.0576Z" fill="#0F77F2"/>
</g>
<defs>
<clipPath id="clip0_239_145">
<rect width="152" height="39" fill="white"/>
</clipPath>
</defs>
</svg>
