<svg width="30" height="30" viewBox="0 0 30 30" fill="none" xmlns="http://www.w3.org/2000/svg">
<g clip-path="url(#clip0_457_2837)">
<path d="M13.5059 0.0410156C9.57422 0.462891 6.01172 2.34375 3.50391 5.33203C1.74023 7.42969 0.644531 9.80859 0.158203 12.5977C0.046875 13.2363 0.0351562 13.5469 0.0351562 15C0.0351562 16.4531 0.046875 16.7637 0.158203 17.4023C0.708984 20.5664 2.0332 23.1855 4.21875 25.4531C6.46289 27.7852 9.29297 29.2617 12.5977 29.8418C13.2363 29.9531 13.5469 29.9648 15 29.9648C16.834 29.9648 17.3848 29.9062 18.8262 29.5371C23.9941 28.2012 28.2012 23.9941 29.5371 18.8262C29.9062 17.3848 29.9648 16.834 29.9648 15C29.9648 13.166 29.9062 12.6152 29.5371 11.1738C28.2012 6.01172 23.9941 1.79883 18.8262 0.462891C17.4961 0.123047 16.8691 0.046875 15.2344 0.0292969C14.4141 0.0175781 13.6348 0.0234375 13.5059 0.0410156ZM16.1191 2.8125C18.4102 3.04102 20.4434 3.83203 22.3301 5.22656C24.4395 6.79102 26.1094 9.23438 26.8008 11.7832C27.3867 13.9395 27.3867 16.0605 26.8008 18.2168C26.1094 20.7656 24.4395 23.209 22.3301 24.7734C21.0527 25.7168 19.6289 26.4199 18.2168 26.8008C16.0605 27.3867 13.9395 27.3867 11.7832 26.8008C10.3711 26.4199 8.94727 25.7168 7.66992 24.7734C5.56055 23.209 3.89062 20.7656 3.19922 18.2168C2.70703 16.4062 2.63086 14.6016 2.96484 12.8027C3.44531 10.1953 4.80469 7.76953 6.79688 5.95312C7.91016 4.93359 9.46289 3.99609 10.916 3.46289C12.4688 2.89453 14.4551 2.64844 16.1191 2.8125Z" fill="#DE4545"/>
<path d="M8.51831 10.3711C7.44605 10.7988 7.03003 12.0234 7.61597 13.0488C7.93238 13.6055 8.49488 13.9102 9.198 13.9102C9.7605 13.9102 10.1472 13.7461 10.5046 13.3652C11.3601 12.4512 11.0964 10.9922 9.98316 10.4355C9.58472 10.2363 8.93433 10.207 8.51831 10.3711Z" fill="#DE4545"/>
<path d="M20.2735 10.3235C19.7462 10.4758 19.2013 11.0325 19.0489 11.5715C18.8087 12.4329 19.2599 13.4231 20.0567 13.7746C20.4786 13.9621 21.1231 13.9621 21.5274 13.7805C21.9552 13.5871 22.1895 13.3879 22.3829 13.0481C22.9747 12.0168 22.547 10.7746 21.463 10.3704C21.1231 10.2414 20.6192 10.2239 20.2735 10.3235Z" fill="#DE4545"/>
<path d="M13.916 16.3887C12.2695 16.6465 10.793 17.3438 9.66211 18.3867C9.14063 18.873 9 19.125 9 19.6289C9 20.4375 9.5625 21 10.3711 21C10.8398 21 11.0098 20.918 11.6309 20.3789C12.1816 19.9102 13.0488 19.4531 13.7402 19.2656C14.4023 19.0898 15.5977 19.0898 16.2598 19.2656C16.9512 19.4531 17.8184 19.9102 18.3691 20.3789C18.9961 20.918 19.1602 21 19.6289 21C20.4375 21 21 20.4375 21 19.6289C21 19.125 20.8594 18.873 20.3379 18.3867C19.6172 17.7188 18.6445 17.1328 17.7012 16.793C16.8281 16.4766 16.2832 16.3887 15.1465 16.3711C14.5664 16.3652 14.0156 16.3711 13.916 16.3887Z" fill="#DE4545"/>
</g>
<defs>
<clipPath id="clip0_457_2837">
<rect width="30" height="30" fill="white"/>
</clipPath>
</defs>
</svg>
