<svg width="88" height="88" viewBox="0 0 88 88" fill="none" xmlns="http://www.w3.org/2000/svg">
<path d="M15.6578 0.344055C13.6297 1.08312 12.1 2.45812 11.1203 4.45187L10.5703 5.58624V44.0003V82.4144L11.1203 83.5487C12.1172 85.5941 13.6641 86.9519 15.7438 87.6566C16.7406 88.0003 17.2047 88.0003 44.3438 87.9659L71.9297 87.9144L73.1328 87.33C74.7141 86.5566 76.0719 85.1987 76.8453 83.6175L77.4297 82.4144L77.4813 52.5081C77.4984 36.0597 77.4813 22.4128 77.4297 22.1722C77.3094 21.7253 57.2172 1.42687 55.9625 0.498741L55.2922 0.000305176H35.9391C17.2734 0.0174942 16.5516 0.0174942 15.6578 0.344055ZM51.7687 12.6675L51.8203 20.1956L52.3703 21.33C53.3672 23.3581 54.8797 24.7159 56.9766 25.4378C57.9219 25.7644 58.4203 25.7816 65.175 25.7816H72.3594L72.325 53.3159L72.2734 80.8675L71.8953 81.4691C71.6891 81.7956 71.2594 82.2253 70.95 82.4144C70.3828 82.7581 70.0734 82.7581 44 82.7581C17.9266 82.7581 17.6172 82.7581 17.05 82.4144C16.7406 82.2253 16.3109 81.7956 16.1047 81.4691L15.7266 80.8675V44.0003V7.13312L16.1047 6.53156C16.5172 5.86124 17.0156 5.50031 17.7891 5.31124C18.0813 5.24249 25.8156 5.19093 35.0109 5.17374L51.7172 5.15656L51.7687 12.6675ZM67.5984 20.5909C67.1344 20.6253 65.0031 20.6253 62.8203 20.5909C58.3859 20.5394 58.1109 20.4706 57.3547 19.2503C56.9938 18.6831 56.9766 18.4425 56.925 13.8362L56.8734 9.02374L62.6484 14.7816L68.4062 20.5394L67.5984 20.5909Z" fill="#D9D9D9"/>
<path d="M27.0875 36.7641C26.2969 37.2969 25.9531 37.95 25.9531 39.0156C25.9531 40.0812 26.2969 40.7344 27.0875 41.2672C27.5688 41.5766 28.2047 41.5938 44 41.5938C59.7953 41.5938 60.4313 41.5766 60.9125 41.2672C61.7031 40.7344 62.0469 40.0812 62.0469 39.0156C62.0469 37.95 61.7031 37.2969 60.9125 36.7641C60.4313 36.4547 59.7953 36.4375 44 36.4375C28.2047 36.4375 27.5688 36.4547 27.0875 36.7641Z" fill="#D9D9D9"/>
<path d="M27.0875 47.0766C26.2969 47.6094 25.9531 48.2625 25.9531 49.3281C25.9531 50.3937 26.2969 51.0469 27.0875 51.5797C27.5688 51.8891 28.2047 51.9062 44 51.9062C59.7953 51.9062 60.4313 51.8891 60.9125 51.5797C61.7031 51.0469 62.0469 50.3937 62.0469 49.3281C62.0469 48.2625 61.7031 47.6094 60.9125 47.0766C60.4313 46.7672 59.7953 46.75 44 46.75C28.2047 46.75 27.5688 46.7672 27.0875 47.0766Z" fill="#D9D9D9"/>
<path d="M27.0875 57.3891C26.2969 57.9219 25.9531 58.575 25.9531 59.6406C25.9531 60.7062 26.2969 61.3594 27.0875 61.8922C27.5688 62.2016 28.2047 62.2188 44 62.2188C59.7953 62.2188 60.4313 62.2016 60.9125 61.8922C61.7031 61.3594 62.0469 60.7062 62.0469 59.6406C62.0469 58.575 61.7031 57.9219 60.9125 57.3891C60.4313 57.0797 59.7953 57.0625 44 57.0625C28.2047 57.0625 27.5688 57.0797 27.0875 57.3891Z" fill="#D9D9D9"/>
<path d="M27.0875 67.7016C26.2969 68.2344 25.9531 68.8875 25.9531 69.9531C25.9531 71.0187 26.2969 71.6719 27.0875 72.2047C27.5688 72.5141 28.1016 72.5312 38.8438 72.5312C49.5859 72.5312 50.1187 72.5141 50.6 72.2047C51.3906 71.6719 51.7344 71.0187 51.7344 69.9531C51.7344 68.8875 51.3906 68.2344 50.6 67.7016C50.1187 67.3922 49.5859 67.375 38.8438 67.375C28.1016 67.375 27.5688 67.3922 27.0875 67.7016Z" fill="#D9D9D9"/>
</svg>
