<svg width="24" height="24" viewBox="0 0 24 24" fill="none" xmlns="http://www.w3.org/2000/svg">
<g id="Frame 234">
<g id="Union">
<path fill-rule="evenodd" clip-rule="evenodd" d="M12.0405 12.681L16.8448 17.5154L17.804 16.5622L13.0664 11.7948L18.1525 7.4012L17.2685 6.37785L12.1108 10.8332L7.30771 6L6.3485 6.95323L11.085 11.7194L6 16.112L6.88401 17.1353L12.0405 12.681Z" fill="#777777"/>
<path d="M16.8448 17.5154L16.3652 17.992C16.6285 18.2569 17.0566 18.2583 17.3214 17.995L16.8448 17.5154ZM12.0405 12.681L12.5201 12.2044C12.2698 11.9525 11.8673 11.9371 11.5985 12.1693L12.0405 12.681ZM17.804 16.5622L18.2807 17.0418C18.4079 16.9154 18.4796 16.7436 18.4802 16.5643C18.4808 16.385 18.4101 16.2128 18.2836 16.0856L17.804 16.5622ZM13.0664 11.7948L12.6244 11.2831C12.4825 11.4057 12.3978 11.5817 12.3907 11.7691C12.3836 11.9565 12.4546 12.1384 12.5868 12.2714L13.0664 11.7948ZM18.1525 7.4012L18.5945 7.91288C18.8771 7.66876 18.9083 7.24179 18.6642 6.95919L18.1525 7.4012ZM17.2685 6.37785L17.7802 5.93584C17.663 5.80014 17.4966 5.71656 17.3178 5.70349C17.1389 5.69042 16.9622 5.74894 16.8265 5.86617L17.2685 6.37785ZM12.1108 10.8332L11.6312 11.3099C11.8815 11.5618 12.2841 11.5771 12.5528 11.3449L12.1108 10.8332ZM7.30771 6L7.78731 5.52339C7.52409 5.25851 7.09597 5.25717 6.83109 5.5204L7.30771 6ZM6.3485 6.95323L5.87189 6.47362C5.60701 6.73685 5.60567 7.16496 5.86889 7.42984L6.3485 6.95323ZM11.085 11.7194L11.527 12.2311C11.6689 12.1085 11.7535 11.9325 11.7606 11.7451C11.7678 11.5577 11.6967 11.3758 11.5646 11.2428L11.085 11.7194ZM6 16.112L5.558 15.6003C5.2754 15.8444 5.24421 16.2714 5.48832 16.554L6 16.112ZM6.88401 17.1353L6.37233 17.5773C6.48956 17.713 6.65589 17.7966 6.83474 17.8097C7.01359 17.8228 7.19031 17.7642 7.32601 17.647L6.88401 17.1353ZM17.3244 17.0388L12.5201 12.2044L11.5609 13.1576L16.3652 17.992L17.3244 17.0388ZM17.3274 16.0826L16.3682 17.0358L17.3214 17.995L18.2807 17.0418L17.3274 16.0826ZM12.5868 12.2714L17.3244 17.0388L18.2836 16.0856L13.546 11.3182L12.5868 12.2714ZM13.5084 12.3065L18.5945 7.91288L17.7105 6.88952L12.6244 11.2831L13.5084 12.3065ZM18.6642 6.95919L17.7802 5.93584L16.7568 6.81985L17.6408 7.8432L18.6642 6.95919ZM16.8265 5.86617L11.6688 10.3216L12.5528 11.3449L17.7105 6.88952L16.8265 5.86617ZM6.8281 6.47661L11.6312 11.3099L12.5904 10.3566L7.78731 5.52339L6.8281 6.47661ZM6.82511 7.43283L7.78432 6.4796L6.83109 5.5204L5.87189 6.47362L6.82511 7.43283ZM11.5646 11.2428L6.8281 6.47661L5.86889 7.42984L10.6054 12.196L11.5646 11.2428ZM10.643 11.2077L5.558 15.6003L6.442 16.6237L11.527 12.2311L10.643 11.2077ZM5.48832 16.554L6.37233 17.5773L7.39569 16.6933L6.51168 15.67L5.48832 16.554ZM7.32601 17.647L12.4825 13.1926L11.5985 12.1693L6.442 16.6237L7.32601 17.647Z" fill="#777777"/>
</g>
</g>
</svg>
