<svg width="24" height="24" viewBox="0 0 24 24" fill="none" xmlns="http://www.w3.org/2000/svg">
<g id="search">
<path id="image 1 (Traced)" fill-rule="evenodd" clip-rule="evenodd" d="M9.73828 3.0401C8.43587 3.1761 7.13863 3.69759 6.02002 4.53489C5.60551 4.84518 4.84399 5.61077 4.53472 6.0282C3.57417 7.32459 3.06065 8.79484 3.00542 10.4068C2.97254 11.3673 3.08814 12.1944 3.38064 13.0909C3.74561 14.2095 4.37261 15.2401 5.20277 16.0859C6.41981 17.3257 7.95782 18.0873 9.67595 18.3009C10.1385 18.3584 11.3207 18.3272 11.7615 18.2459C12.7863 18.0568 13.6982 17.7021 14.523 17.1717L14.8421 16.9664L17.0785 19.333C18.3085 20.6345 19.366 21.7433 19.4284 21.7968C19.8199 22.1324 20.5009 22.0399 20.7997 21.6106C20.9498 21.395 20.9963 21.2538 20.9997 21.0036C21.005 20.6004 20.9792 20.5686 18.616 18.0699C17.4338 16.8199 16.4291 15.7517 16.3832 15.6962L16.2998 15.5952L16.495 15.3407C17.8181 13.6154 18.3308 11.3459 17.8991 9.12558C17.6834 8.01617 17.1186 6.7965 16.3984 5.88462C14.7853 3.84235 12.2845 2.77424 9.73828 3.0401ZM11.2337 5.05679C13.5982 5.37755 15.471 7.14099 15.9728 9.51928C16.0725 9.99185 16.1097 10.937 16.0463 11.3878C15.8648 12.6799 15.3308 13.7835 14.4561 14.6746C13.6127 15.5339 12.5666 16.0788 11.38 16.277C10.9819 16.3435 10.1074 16.3438 9.68054 16.2776C8.14227 16.0389 6.74895 15.1293 5.89291 13.8049C5.58699 13.3316 5.42247 12.9889 5.25326 12.4725C5.06917 11.9107 4.99593 11.4899 4.97246 10.8587C4.85464 7.69389 7.36056 5.03447 10.4856 5.00788C10.6861 5.00617 11.0227 5.02815 11.2337 5.05679Z" fill="#2178DE"/>
</g>
</svg>
