<svg width="30" height="30" viewBox="0 0 30 30" fill="none" xmlns="http://www.w3.org/2000/svg">
<g clip-path="url(#clip0_457_2771)">
<path d="M13.5059 0.0410156C9.57422 0.462891 6.01172 2.34375 3.50391 5.33203C1.74023 7.42969 0.644531 9.80859 0.158203 12.5977C0.046875 13.2363 0.0351562 13.5469 0.0351562 15C0.0351562 16.4531 0.046875 16.7637 0.158203 17.4023C0.708984 20.5664 2.0332 23.1855 4.21875 25.4531C6.46289 27.7852 9.29297 29.2617 12.5977 29.8418C13.2363 29.9531 13.5469 29.9648 15 29.9648C16.834 29.9648 17.3848 29.9062 18.8262 29.5371C23.9941 28.2012 28.2012 23.9941 29.5371 18.8262C29.9062 17.3848 29.9648 16.834 29.9648 15C29.9648 13.166 29.9062 12.6152 29.5371 11.1738C28.2012 6.01172 23.9941 1.79883 18.8262 0.462891C17.4961 0.123047 16.8691 0.046875 15.2344 0.0292969C14.4141 0.0175781 13.6348 0.0234375 13.5059 0.0410156ZM16.1191 2.8125C18.4102 3.04102 20.4434 3.83203 22.3301 5.22656C24.4395 6.79102 26.1094 9.23438 26.8008 11.7832C27.3867 13.9395 27.3867 16.0605 26.8008 18.2168C26.1094 20.7656 24.4395 23.209 22.3301 24.7734C21.0527 25.7168 19.6289 26.4199 18.2168 26.8008C16.0605 27.3867 13.9395 27.3867 11.7832 26.8008C10.3711 26.4199 8.94727 25.7168 7.66992 24.7734C5.56055 23.209 3.89062 20.7656 3.19922 18.2168C2.70703 16.4062 2.63086 14.6016 2.96484 12.8027C3.44531 10.1953 4.80469 7.76953 6.79688 5.95312C7.91016 4.93359 9.46289 3.99609 10.916 3.46289C12.4688 2.89453 14.4551 2.64844 16.1191 2.8125Z" fill="#32BD91"/>
<path d="M8.52027 10.3711C7.448 10.7988 7.03199 12.0234 7.61792 13.0488C7.93433 13.6055 8.49683 13.9102 9.19995 13.9102C9.76245 13.9102 10.1492 13.7461 10.5066 13.3652C11.3621 12.4512 11.0984 10.9922 9.98511 10.4355C9.58667 10.2363 8.93628 10.207 8.52027 10.3711Z" fill="#32BD91"/>
<path d="M20.2735 10.3245C19.7462 10.4768 19.2013 11.0334 19.0489 11.5725C18.8087 12.4338 19.2599 13.4241 20.0567 13.7756C20.4786 13.9631 21.1231 13.9631 21.5274 13.7815C21.9552 13.5881 22.1895 13.3889 22.3829 13.0491C22.9747 12.0178 22.547 10.7756 21.463 10.3713C21.1231 10.2424 20.6192 10.2248 20.2735 10.3245Z" fill="#32BD91"/>
<path d="M10.0488 18.2754C9.39844 18.4453 9 18.9551 9 19.6289C9 20.1035 9.13477 20.373 9.55664 20.7715C11.0566 22.1777 12.9199 22.9102 15 22.9102C17.0801 22.9102 18.9434 22.1777 20.4434 20.7715C20.8652 20.373 21 20.1035 21 19.6289C21 18.8203 20.4375 18.2578 19.6289 18.2578C19.1777 18.2578 18.9316 18.3691 18.457 18.791C17.8066 19.3711 17.0859 19.7637 16.2598 19.9863C15.8848 20.0918 15.627 20.1152 15 20.1152C14.373 20.1152 14.1152 20.0918 13.7402 19.9863C12.9141 19.7637 12.1934 19.3711 11.543 18.791C11.3672 18.6328 11.127 18.457 11.0098 18.3984C10.7637 18.2695 10.3008 18.2109 10.0488 18.2754Z" fill="#32BD91"/>
</g>
<defs>
<clipPath id="clip0_457_2771">
<rect width="30" height="30" fill="white"/>
</clipPath>
</defs>
</svg>
