<svg width="20" height="20" viewBox="0 0 20 20" fill="none" xmlns="http://www.w3.org/2000/svg">
<g clip-path="url(#clip0_244_1236)">
<path d="M8.73047 4.38204C7.41797 4.42858 6.97656 4.56043 6.66797 4.99866C6.56641 5.14214 6.58594 5.1848 6.78906 5.22746C7.20312 5.31666 7.49609 5.51832 7.625 5.79754C7.87109 6.35598 7.9375 7.70168 7.77734 8.91552C7.69531 9.51662 7.53906 9.84238 7.30469 9.89279C6.99609 9.95872 6.47656 9.53601 6.03516 8.86122C5.68359 8.32605 4.69922 6.43742 4.375 5.67732C4.17187 5.20032 4.08594 5.08397 3.84375 4.95987L3.65234 4.86292L2.08984 4.87456C1.23047 4.87843 0.460937 4.89395 0.378906 4.90558C0.296875 4.91722 0.179687 4.97151 0.117187 5.0258C0.015625 5.10724 0 5.1499 0 5.32054C0 5.48342 0.0546875 5.63466 0.316406 6.21637C1.30469 8.39585 2.41406 10.3233 3.58594 11.8978C4.51953 13.1543 5.07812 13.7399 5.86328 14.2905C6.97266 15.07 7.80859 15.4423 8.80859 15.6052C9.28516 15.6828 11.0469 15.6828 11.2617 15.6091C11.6016 15.485 11.6836 15.326 11.7227 14.6745C11.7695 13.8989 11.9453 13.4412 12.2969 13.1698C12.6406 12.9061 12.9805 13.1155 13.9141 14.1587C14.5312 14.849 14.8437 15.1515 15.1523 15.3454C15.3906 15.4966 15.7305 15.6362 15.9609 15.6828C16.1406 15.7138 17.2148 15.7099 18.5625 15.6673L19.5273 15.6362L19.7148 15.5238C19.9297 15.3919 20 15.2794 20 15.0584C20 14.4844 19.4922 13.7903 17.9492 12.2701C16.8086 11.1454 16.7305 11.0407 16.7695 10.6878C16.8047 10.4163 16.9297 10.2263 17.9492 8.87674C19.2695 7.1316 19.707 6.45294 19.9258 5.81693C20.0273 5.52607 20.0234 5.19256 19.9219 5.08397C19.7266 4.87843 19.6992 4.87456 17.6562 4.88231C16.5547 4.88231 15.7031 4.9017 15.6172 4.92497C15.418 4.97539 15.3125 5.11888 15.1172 5.60364C15.0234 5.83632 14.7734 6.36762 14.5625 6.78257C13.7852 8.32605 12.875 9.58643 12.3555 9.83462C12.2422 9.89279 12.2227 9.88892 12.082 9.81911C11.9844 9.7687 11.9062 9.68338 11.8477 9.57091C11.6914 9.2723 11.6758 8.9194 11.7227 7.15099C11.7695 5.40198 11.7578 5.21195 11.5898 4.88619C11.543 4.78924 11.457 4.67677 11.4023 4.63799C11.2539 4.52941 10.7461 4.42082 10.293 4.39755C10.0781 4.38592 9.81641 4.37041 9.70703 4.36265C9.60156 4.35877 9.16016 4.36653 8.73047 4.38204Z" fill="#7A7A7A"/>
</g>
<defs>
<clipPath id="clip0_244_1236">
<rect width="20" height="20" fill="white"/>
</clipPath>
</defs>
</svg>
