<svg width="22" height="22" viewBox="0 0 22 22" fill="none" xmlns="http://www.w3.org/2000/svg">
<path d="M20.9043 1.521C20.7625 1.55537 18.4035 2.46201 15.6621 3.53623C12.9207 4.61045 8.42617 6.37646 5.67188 7.45498C2.91758 8.5335 0.588672 9.46162 0.489844 9.51748C0.395313 9.57334 0.244922 9.69795 0.158984 9.79248C0.0214844 9.94717 0 9.99443 0 10.1835C0 10.553 0.214844 10.8452 0.635938 11.0601C0.713281 11.103 1.86914 11.5026 3.20547 11.9495L5.6332 12.7659L11.8723 8.8042C15.3055 6.62139 18.2016 4.80381 18.309 4.75654C18.584 4.64053 18.7344 4.6792 18.7344 4.86396C18.7344 4.97998 18.6785 5.05732 18.3734 5.34521C18.1758 5.53857 15.8941 7.59678 13.3074 9.92568C8.92031 13.8702 8.60664 14.1624 8.67109 14.2269C8.92031 14.4718 16.7234 20.3886 16.8652 20.4401C17.1016 20.5304 17.6387 20.5304 17.8406 20.4401C18.0598 20.3456 18.4035 20.0147 18.4895 19.8214C18.584 19.6022 22 2.34599 22 2.08818C22 1.85185 21.9098 1.67568 21.7422 1.57685C21.5746 1.47803 21.2051 1.45225 20.9043 1.521Z" fill="#121212"/>
</svg>
