<svg width="20" height="20" viewBox="0 0 20 20" fill="none" xmlns="http://www.w3.org/2000/svg">
<g clip-path="url(#clip0_244_1250)">
<path d="M14.4765 0.0581703C14.0976 0.132389 13.5547 0.30817 13.2461 0.468327C12.6367 0.773014 12.4218 0.96442 10.4023 2.98005C8.44919 4.92927 8.43747 4.94098 8.43747 5.10114C8.43747 5.37848 8.5195 5.41755 9.16404 5.46442C9.81247 5.5113 10.1875 5.58161 10.7383 5.7652C11.0039 5.85505 11.1836 5.89411 11.2461 5.87848C11.3086 5.86286 11.8906 5.31208 12.7343 4.47614C13.5312 3.68317 14.1992 3.05036 14.3008 2.99177C14.9531 2.61677 15.7695 2.62848 16.375 3.0152C16.625 3.17145 16.9609 3.54255 17.0859 3.79645C17.3008 4.23395 17.3476 4.78083 17.207 5.24567C17.0664 5.71442 17.0468 5.73786 14.6406 8.14802C13.0898 9.7027 12.2695 10.4957 12.125 10.5855C11.7851 10.7886 11.5117 10.8668 11.1133 10.8746C10.5468 10.8824 10.2265 10.7613 9.69138 10.3355C9.32419 10.0425 9.10935 9.96052 8.707 9.96052C7.68357 9.96052 7.07419 11.0152 7.55466 11.9449C7.58982 12.0113 7.71091 12.1558 7.82029 12.2691C8.54294 12.9761 9.47654 13.4254 10.5039 13.5582C11.0742 13.6285 12 13.5386 12.5781 13.3511C12.9531 13.234 13.5664 12.9058 13.9023 12.6519C14.0664 12.5269 15.2812 11.3394 16.6054 10.0113C18.6133 7.99567 19.0508 7.54255 19.2383 7.25348C19.5156 6.83161 19.7383 6.33161 19.8711 5.83161C19.9687 5.47614 19.9765 5.3902 19.9765 4.66755C19.9765 3.94489 19.9687 3.85895 19.8711 3.50348C19.4218 1.83161 18.1562 0.565983 16.4961 0.128483C16.1758 0.0464516 16.0078 0.0269203 15.4492 0.0152016C14.9726 0.00738907 14.6992 0.0191078 14.4765 0.0581703Z" fill="#7A7A7A"/>
<path d="M8.30077 6.44832C7.56249 6.54597 6.69921 6.89363 6.10937 7.33504C5.92577 7.47566 4.82812 8.54597 3.39452 9.98347C0.781241 12.6085 0.714834 12.6866 0.386709 13.4444C0.124991 14.0421 0.0351467 14.4561 0.0117092 15.1553C-0.0117283 15.8546 0.0468655 16.2882 0.242178 16.8546C0.390616 17.296 0.499991 17.5108 0.773428 17.9288C1.46093 18.9678 2.5039 19.6632 3.7578 19.9249C4.10155 19.9952 4.24999 20.003 4.80468 19.9874C5.53124 19.9678 5.96093 19.878 6.52734 19.6319C7.28124 19.3077 7.35546 19.2452 9.54296 17.0694C11.5547 15.0655 11.5625 15.0577 11.5625 14.9014C11.5625 14.6241 11.4805 14.5811 10.8359 14.5343C10.1914 14.4874 9.82421 14.4171 9.24609 14.2335C8.98437 14.1475 8.79296 14.1046 8.73827 14.1202C8.6914 14.1358 8.01952 14.7764 7.24609 15.5421C6.4453 16.3389 5.76562 16.9835 5.66405 17.0382C4.29687 17.8155 2.61718 16.7882 2.70702 15.2374C2.72655 14.8389 2.83202 14.5225 3.02343 14.2452C3.09765 14.1319 4.1953 13.0108 5.45702 11.753C7.85546 9.35847 7.8789 9.33894 8.34765 9.19832C8.66015 9.10457 8.98046 9.08894 9.29687 9.15535C9.66796 9.23347 9.91015 9.35457 10.2734 9.64754C10.6367 9.9405 10.8945 10.0421 11.2695 10.0421C11.8164 10.0421 12.2656 9.76472 12.4844 9.28816C12.6406 8.94441 12.6445 8.51863 12.4922 8.19441C12.2891 7.75691 11.6953 7.253 10.957 6.88972C10.1211 6.48347 9.21874 6.33504 8.30077 6.44832Z" fill="#7A7A7A"/>
</g>
<defs>
<clipPath id="clip0_244_1250">
<rect width="20" height="20" fill="white"/>
</clipPath>
</defs>
</svg>
