<svg width="22" height="22" viewBox="0 0 22 22" fill="none" xmlns="http://www.w3.org/2000/svg">
<g clip-path="url(#clip0_243_1186)">
<path d="M0.970222 4.38305C0.604987 4.49477 0.437409 4.96742 0.65655 5.28539C0.721003 5.38422 2.25928 6.45414 5.58507 8.7143C8.24483 10.519 10.4964 12.0358 10.5909 12.0873C10.823 12.2034 11.1796 12.2034 11.4073 12.083C11.5019 12.0358 13.7534 10.519 16.4132 8.71C19.7175 6.46703 21.2773 5.38422 21.346 5.28539C21.5265 5.01899 21.4362 4.62367 21.1526 4.43891C21.0409 4.36586 20.5983 4.36156 11.0636 4.35297C5.58077 4.34867 1.03897 4.36586 0.970222 4.38305Z" fill="#121212"/>
<path d="M0.313672 6.42782C0.236328 6.46649 0.133203 6.56102 0.0859375 6.63836C0 6.77586 0 6.84891 0 11.3348V15.8938L0.128906 16.0442C0.201953 16.1259 0.330859 16.2161 0.4125 16.2419C0.670313 16.3278 0.833594 16.2677 1.16875 15.9497C1.69727 15.4556 6.81055 10.5141 6.81914 10.4884C6.83203 10.4583 1.08711 6.54813 0.863672 6.43641C0.678906 6.34188 0.494141 6.33758 0.313672 6.42782Z" fill="#121212"/>
<path d="M21.1371 6.43686C20.9266 6.53568 15.1645 10.4544 15.1817 10.4888C15.1903 10.5189 20.4797 15.6279 20.875 15.9931C21.2704 16.354 21.584 16.3712 21.8719 16.0447L22.0008 15.8943V11.3396C22.0008 6.2349 22.0266 6.61303 21.6914 6.44115C21.4938 6.34232 21.3391 6.33803 21.1371 6.43686Z" fill="#121212"/>
<path d="M4.48236 13.8359C1.90424 16.3324 1.50463 16.7363 1.47884 16.8695C1.41439 17.209 1.54759 17.4797 1.83549 17.6C1.9515 17.6516 3.45111 17.6602 11.0093 17.6602C19.5257 17.6602 20.0542 17.6559 20.196 17.5828C20.4796 17.441 20.6128 17.0887 20.5011 16.7879C20.4581 16.6805 14.5972 10.9871 14.5027 10.9656C14.4726 10.957 13.8624 11.3523 13.1449 11.8422C12.4273 12.332 11.7312 12.7789 11.6023 12.8434C11.2628 13.0023 10.7386 13.0023 10.3992 12.8434C10.2703 12.7789 9.57845 12.332 8.86088 11.8422C8.1433 11.3566 7.53314 10.957 7.50736 10.957C7.47728 10.9613 6.11947 12.2547 4.48236 13.8359Z" fill="#121212"/>
</g>
<defs>
<clipPath id="clip0_243_1186">
<rect width="22" height="22" fill="white"/>
</clipPath>
</defs>
</svg>
