<svg width="20" height="20" viewBox="0 0 20 20" fill="none" xmlns="http://www.w3.org/2000/svg">
<path d="M19.0039 1.38379C18.875 1.41504 16.7305 2.23926 14.2383 3.21582C11.7461 4.19238 7.66016 5.79785 5.15625 6.77832C2.65234 7.75879 0.535156 8.60254 0.445312 8.65332C0.359375 8.7041 0.222656 8.81738 0.144531 8.90332C0.0195312 9.04395 0 9.08691 0 9.25879C0 9.59473 0.195312 9.86035 0.578125 10.0557C0.648438 10.0947 1.69922 10.458 2.91406 10.8643L5.12109 11.6064L10.793 8.00488C13.9141 6.02051 16.5469 4.36816 16.6445 4.3252C16.8945 4.21973 17.0312 4.25488 17.0312 4.42285C17.0312 4.52832 16.9805 4.59863 16.7031 4.86035C16.5234 5.03613 14.4492 6.90723 12.0977 9.02441C8.10938 12.6104 7.82422 12.876 7.88281 12.9346C8.10938 13.1572 15.2031 18.5361 15.332 18.583C15.5469 18.665 16.0352 18.665 16.2188 18.583C16.418 18.4971 16.7305 18.1963 16.8086 18.0205C16.8945 17.8213 20 2.13379 20 1.89941C20 1.68457 19.918 1.52441 19.7656 1.43457C19.6133 1.34473 19.2773 1.32129 19.0039 1.38379Z" fill="#7A7A7A"/>
</svg>
