<svg width="22" height="22" viewBox="0 0 22 22" fill="none" xmlns="http://www.w3.org/2000/svg">
<g clip-path="url(#clip0_244_1192)">
<path d="M9.60351 4.82122C8.15977 4.87241 7.67422 5.01745 7.33476 5.4995C7.22305 5.65734 7.24453 5.70426 7.46797 5.75119C7.92344 5.8493 8.2457 6.07113 8.3875 6.37827C8.6582 6.99256 8.73125 8.47282 8.55508 9.80805C8.46484 10.4693 8.29297 10.8276 8.03516 10.883C7.6957 10.9556 7.12422 10.4906 6.63867 9.74832C6.25195 9.15963 5.16914 7.08214 4.8125 6.24603C4.58906 5.72132 4.49453 5.59335 4.22812 5.45684L4.01758 5.35019L2.29883 5.36299C1.35352 5.36726 0.507031 5.38432 0.416797 5.39712C0.326562 5.40991 0.197656 5.46964 0.128906 5.52936C0.0171875 5.61894 0 5.66587 0 5.85357C0 6.03273 0.0601562 6.1991 0.348047 6.83899C1.43516 9.23642 2.65547 11.3566 3.94453 13.0885C4.97148 14.4707 5.58594 15.1148 6.44961 15.7206C7.66992 16.578 8.58945 16.9875 9.68945 17.1667C10.2137 17.252 12.1516 17.252 12.3879 17.171C12.7617 17.0345 12.852 16.8596 12.8949 16.1429C12.9465 15.2897 13.1398 14.7863 13.5266 14.4877C13.9047 14.1976 14.2785 14.428 15.3055 15.5755C15.9844 16.3349 16.3281 16.6676 16.6676 16.8809C16.9297 17.0473 17.3035 17.2008 17.557 17.252C17.7547 17.2862 18.9363 17.2819 20.4187 17.235L21.4801 17.2008L21.6863 17.0771C21.9227 16.9321 22 16.8084 22 16.5652C22 15.9339 21.4414 15.1703 19.7441 13.498C18.4895 12.2609 18.4035 12.1458 18.4465 11.7576C18.4852 11.4589 18.6227 11.2499 19.7441 9.76539C21.1965 7.84574 21.6777 7.09921 21.9184 6.3996C22.0301 6.07966 22.0258 5.71279 21.9141 5.59335C21.6992 5.36726 21.6691 5.36299 19.4219 5.37152C18.2102 5.37152 17.2734 5.39285 17.1789 5.41845C16.9598 5.4739 16.8437 5.63174 16.6289 6.16498C16.5258 6.42093 16.2508 7.00536 16.0187 7.46181C15.1637 9.15963 14.1625 10.546 13.591 10.8191C13.4664 10.883 13.4449 10.8788 13.2902 10.802C13.1828 10.7465 13.0969 10.6527 13.0324 10.529C12.8605 10.2005 12.8434 9.81231 12.8949 7.86707C12.9465 5.94315 12.9336 5.73412 12.7488 5.37579C12.6973 5.26914 12.6027 5.14543 12.5426 5.10277C12.3793 4.98333 11.8207 4.86388 11.3223 4.83828C11.0859 4.82549 10.798 4.80842 10.6777 4.79989C10.5617 4.79563 10.0762 4.80416 9.60351 4.82122Z" fill="#121212"/>
</g>
<defs>
<clipPath id="clip0_244_1192">
<rect width="22" height="22" fill="white"/>
</clipPath>
</defs>
</svg>
