<svg width="16" height="16" viewBox="0 0 16 16" fill="none" xmlns="http://www.w3.org/2000/svg">
<path id="Star 34" d="M7.06334 1.00494C7.38729 0.138598 8.61271 0.138597 8.93666 1.00494L10.2369 4.48221C10.3774 4.85806 10.729 5.1135 11.1299 5.13102L14.8388 5.29308C15.7628 5.33346 16.1415 6.49891 15.4177 7.07472L12.5124 9.38585C12.1984 9.63565 12.0641 10.049 12.1713 10.4356L13.1633 14.0131C13.4104 14.9044 12.419 15.6247 11.6477 15.1142L8.55191 13.0653C8.21729 12.8438 7.78271 12.8438 7.44809 13.0653L4.35229 15.1142C3.58099 15.6247 2.5896 14.9044 2.83674 14.0131L3.82872 10.4356C3.93594 10.049 3.80164 9.63565 3.48762 9.38585L0.582335 7.07472C-0.141504 6.49891 0.237172 5.33346 1.16122 5.29308L4.8701 5.13102C5.27098 5.1135 5.62257 4.85806 5.7631 4.48221L7.06334 1.00494Z" fill="#FAA931"/>
</svg>
