<svg width="16" height="16" viewBox="0 0 16 16" fill="none" xmlns="http://www.w3.org/2000/svg">
<path id="Star 35" d="M7.53167 1.18006C7.69364 0.746891 8.30636 0.746892 8.46833 1.18006L9.76857 4.65733C9.97937 5.2211 10.5068 5.60427 11.1081 5.63054L14.8169 5.79261C15.279 5.8128 15.4683 6.39552 15.1064 6.68342L12.2011 8.99456C11.7301 9.36926 11.5286 9.98924 11.6895 10.5692L12.6814 14.1467C12.805 14.5923 12.3093 14.9525 11.9237 14.6972L8.82786 12.6483C8.32594 12.3161 7.67406 12.3161 7.17214 12.6483L4.07634 14.6972C3.69068 14.9525 3.19499 14.5923 3.31856 14.1467L4.31054 10.5692C4.47137 9.98924 4.26992 9.36926 3.79889 8.99456L0.893606 6.68342C0.531686 6.39552 0.721025 5.8128 1.18305 5.79261L4.89192 5.63054C5.49324 5.60427 6.02063 5.2211 6.23143 4.65733L7.53167 1.18006Z" fill="white" stroke="#FAA931"/>
</svg>
