<svg width="16" height="16" viewBox="0 0 16 16" fill="none" xmlns="http://www.w3.org/2000/svg">
<path d="M7.53167 1.68006C7.69364 1.24689 8.30636 1.24689 8.46833 1.68006L9.76857 5.15733C9.97937 5.7211 10.5068 6.10427 11.1081 6.13054L14.8169 6.29261C15.279 6.3128 15.4683 6.89552 15.1064 7.18342L12.2011 9.49456C11.7301 9.86926 11.5286 10.4892 11.6895 11.0692L12.6814 14.6467C12.805 15.0923 12.3093 15.4525 11.9237 15.1972L8.82786 13.1483C8.32594 12.8161 7.67406 12.8161 7.17214 13.1483L4.07634 15.1972C3.69068 15.4525 3.19499 15.0923 3.31856 14.6467L4.31054 11.0692C4.47137 10.4892 4.26992 9.86926 3.79889 9.49456L0.893606 7.18342C0.531686 6.89552 0.721025 6.3128 1.18305 6.29261L4.89192 6.13054C5.49324 6.10427 6.02063 5.7211 6.23143 5.15733L7.53167 1.68006Z" stroke="#FAA931"/>
</svg>
