<svg width="16" height="16" viewBox="0 0 16 16" fill="none" xmlns="http://www.w3.org/2000/svg">
<path d="M7.06334 1.50494C7.38729 0.638598 8.61271 0.638597 8.93666 1.50494L10.2369 4.98221C10.3774 5.35806 10.729 5.6135 11.1299 5.63102L14.8388 5.79308C15.7628 5.83346 16.1415 6.99891 15.4177 7.57472L12.5124 9.88585C12.1984 10.1357 12.0641 10.549 12.1713 10.9356L13.1633 14.5131C13.4104 15.4044 12.419 16.1247 11.6477 15.6142L8.55191 13.5653C8.21729 13.3438 7.78271 13.3438 7.44809 13.5653L4.35229 15.6142C3.58099 16.1247 2.5896 15.4044 2.83674 14.5131L3.82872 10.9356C3.93594 10.549 3.80164 10.1357 3.48762 9.88585L0.582335 7.57472C-0.141504 6.99891 0.237172 5.83346 1.16122 5.79308L4.8701 5.63102C5.27098 5.6135 5.62257 5.35806 5.7631 4.98221L7.06334 1.50494Z" fill="#FAA931"/>
</svg>
