<svg width="24" height="24" viewBox="0 0 24 24" fill="none" xmlns="http://www.w3.org/2000/svg">
<g id="tg">
<g id="Black">
<path id="Vector" d="M22.8047 1.65918C22.65 1.69668 20.0766 2.68574 17.0859 3.85762C14.0953 5.02949 9.19219 6.95606 6.1875 8.13262C3.18281 9.30918 0.642188 10.3217 0.534375 10.3826C0.43125 10.4436 0.267188 10.5795 0.173438 10.6826C0.0234375 10.8514 0 10.9029 0 11.1092C0 11.5123 0.234375 11.8311 0.69375 12.0654C0.778125 12.1123 2.03906 12.5482 3.49688 13.0357L6.14531 13.9264L12.9516 9.60449C16.6969 7.22324 19.8563 5.24043 19.9734 5.18887C20.2734 5.06231 20.4375 5.10449 20.4375 5.30606C20.4375 5.43262 20.3766 5.51699 20.0438 5.83106C19.8281 6.04199 17.3391 8.28731 14.5172 10.8279C9.73125 15.1311 9.38906 15.4498 9.45938 15.5201C9.73125 15.7873 18.2438 22.242 18.3984 22.2982C18.6562 22.3967 19.2422 22.3967 19.4625 22.2982C19.7016 22.1951 20.0766 21.8342 20.1703 21.6232C20.2734 21.3842 24 2.55918 24 2.27793C24 2.02012 23.9016 1.82793 23.7188 1.72012C23.5359 1.61231 23.1328 1.58418 22.8047 1.65918Z" fill="white"/>
</g>
</g>
</svg>
