<svg width="23" height="23" viewBox="0 0 23 23" fill="none" xmlns="http://www.w3.org/2000/svg">
<g clip-path="url(#clip0_244_1246)">
<path d="M10.2423 5.88505C6.8687 6.20399 3.8814 7.51122 1.41519 9.73486C0.943506 10.1616 0.23374 10.9028 0.0765137 11.1409C-0.0268066 11.2892 -0.0268066 11.7114 0.0765137 11.8597C0.23374 12.0977 0.943506 12.839 1.41519 13.2657C4.31265 15.8802 8.03667 17.2593 11.9044 17.147C15.3005 17.0436 18.2968 15.9341 21.0011 13.7733C21.4998 13.369 22.6363 12.2595 22.8564 11.954C22.9777 11.7878 23.0001 11.7159 23.0001 11.5048C23.0001 11.3431 22.9732 11.2128 22.9238 11.1409C22.7666 10.9028 22.0568 10.1616 21.5851 9.73486C19.2806 7.65497 16.4371 6.34774 13.3419 5.95243C12.6816 5.86708 10.8623 5.82665 10.2423 5.88505ZM12.421 7.81669C13.7687 8.16259 14.8244 9.21825 15.1882 10.5839C15.3185 11.0735 15.323 11.9181 15.1927 12.4032C14.8244 13.7868 13.7912 14.8245 12.4166 15.1884C11.9179 15.3231 11.0824 15.3231 10.5837 15.1884C9.20913 14.8245 8.17593 13.7868 7.80757 12.4032C7.68179 11.927 7.68179 11.0735 7.80757 10.5974C8.15796 9.29462 9.07886 8.30634 10.3412 7.88857C10.988 7.67294 11.7517 7.64599 12.421 7.81669ZM7.65483 8.00536C6.91812 8.80497 6.45093 9.86513 6.32964 11.0151C6.1814 12.4212 6.69351 13.9575 7.65483 14.9907C7.79858 15.1479 7.9019 15.2737 7.88843 15.2737C7.87046 15.2737 7.63237 15.2018 7.35386 15.112C5.70972 14.5819 4.22729 13.7733 2.88862 12.6727C2.32261 12.2056 1.66226 11.5722 1.66226 11.4958C1.66226 11.4194 2.30913 10.804 2.88862 10.3278C4.21382 9.23622 5.6064 8.47255 7.25503 7.9245C7.57847 7.81669 7.85698 7.72685 7.87944 7.72685C7.89741 7.72685 7.79858 7.85263 7.65483 8.00536ZM15.6464 7.88857C17.2906 8.41864 18.773 9.22724 20.1117 10.3278C20.6642 10.7815 21.338 11.4284 21.338 11.5003C21.338 11.5722 20.6642 12.219 20.1117 12.6727C18.773 13.7733 17.2906 14.5819 15.6464 15.112C15.3679 15.2018 15.1298 15.2737 15.1119 15.2737C15.0984 15.2737 15.2017 15.1479 15.3455 14.9907C16.3068 13.9575 16.8189 12.4212 16.6707 11.0151C16.5494 9.86962 16.0777 8.80048 15.3455 8.00536C15.2017 7.85263 15.0984 7.72685 15.1119 7.72685C15.1298 7.72685 15.3679 7.79872 15.6464 7.88857Z" fill="#A4A4A4"/>
<path d="M11.1183 9.2541C10.5837 9.34844 10.2019 9.55957 9.82002 9.97285C9.52803 10.2873 9.36631 10.6063 9.27646 11.0285C9.19561 11.4238 9.19561 11.5766 9.27646 11.9719C9.36631 12.3941 9.52803 12.7131 9.82002 13.0275C10.3007 13.5441 10.7903 13.7598 11.5001 13.7598C12.2099 13.7598 12.6995 13.5441 13.1802 13.0275C13.3149 12.8793 13.4767 12.6547 13.5396 12.5244C13.6653 12.2684 13.7911 11.7563 13.7911 11.5002C13.7911 11.2441 13.6653 10.732 13.5396 10.476C13.3958 10.184 13.0095 9.75723 12.713 9.56855C12.2952 9.29902 11.6169 9.16875 11.1183 9.2541ZM11.7382 10.6512C11.9313 10.7006 12.1919 10.9162 12.2862 11.0914C12.5423 11.5855 12.2593 12.1965 11.7067 12.3537C11.262 12.475 10.7813 12.183 10.6466 11.7068C10.5972 11.5182 10.5972 11.4643 10.6601 11.2576C10.7454 10.9881 10.961 10.759 11.2126 10.6691C11.4282 10.5928 11.5181 10.5883 11.7382 10.6512Z" fill="#A4A4A4"/>
</g>
<defs>
<clipPath id="clip0_244_1246">
<rect width="23" height="23" fill="white"/>
</clipPath>
</defs>
</svg>
