<svg width="24" height="24" viewBox="0 0 24 24" fill="none" xmlns="http://www.w3.org/2000/svg">
<g id="vk" clip-path="url(#clip0_241_208)">
<g id="Black">
<path id="Vector" d="M10.4766 5.25943C8.90156 5.31527 8.37188 5.4735 8.00156 5.99936C7.87969 6.17155 7.90313 6.22274 8.14688 6.27393C8.64375 6.38097 8.99531 6.62296 9.15 6.95803C9.44531 7.62816 9.525 9.24299 9.33281 10.6996C9.23438 11.4209 9.04688 11.8118 8.76562 11.8723C8.39531 11.9514 7.77188 11.4442 7.24219 10.6344C6.82031 9.99224 5.63906 7.72589 5.25 6.81376C5.00625 6.24136 4.90313 6.10175 4.6125 5.95283L4.38281 5.83648L2.50781 5.85045C1.47656 5.8551 0.553125 5.87371 0.454688 5.88768C0.35625 5.90164 0.215625 5.96679 0.140625 6.03194C0.01875 6.12967 0 6.18086 0 6.38562C0 6.58108 0.065625 6.76257 0.379688 7.46062C1.56563 10.076 2.89688 12.3889 4.30313 14.2783C5.42344 15.7861 6.09375 16.4888 7.03594 17.1496C8.36719 18.085 9.37031 18.5318 10.5703 18.7272C11.1422 18.8203 13.2563 18.8203 13.5141 18.7319C13.9219 18.583 14.0203 18.3922 14.0672 17.6103C14.1234 16.6796 14.3344 16.1305 14.7563 15.8047C15.1688 15.4883 15.5766 15.7396 16.6969 16.9914C17.4375 17.8198 17.8125 18.1827 18.1828 18.4154C18.4688 18.5969 18.8766 18.7645 19.1531 18.8203C19.3688 18.8575 20.6578 18.8529 22.275 18.8017L23.4328 18.7645L23.6578 18.6295C23.9156 18.4713 24 18.3363 24 18.0711C24 17.3823 23.3906 16.5493 21.5391 14.725C20.1703 13.3755 20.0766 13.2498 20.1234 12.8263C20.1656 12.5006 20.3156 12.2725 21.5391 10.6531C23.1234 8.5589 23.6484 7.7445 23.9109 6.98129C24.0328 6.63227 24.0281 6.23205 23.9062 6.10175C23.6719 5.8551 23.6391 5.85045 21.1875 5.85975C19.8656 5.85975 18.8438 5.88302 18.7406 5.91094C18.5016 5.97144 18.375 6.14363 18.1406 6.72534C18.0281 7.00456 17.7281 7.64212 17.475 8.14007C16.5422 9.99224 15.45 11.5047 14.8266 11.8025C14.6906 11.8723 14.6672 11.8677 14.4984 11.7839C14.3813 11.7234 14.2875 11.621 14.2172 11.4861C14.0297 11.1277 14.0109 10.7043 14.0672 8.58217C14.1234 6.48335 14.1094 6.25532 13.9078 5.86441C13.8516 5.74806 13.7484 5.61311 13.6828 5.56657C13.5047 5.43627 12.8953 5.30596 12.3516 5.27804C12.0938 5.26408 11.7797 5.24547 11.6484 5.23616C11.5219 5.2315 10.9922 5.24081 10.4766 5.25943Z" fill="white"/>
</g>
</g>
<defs>
<clipPath id="clip0_241_208">
<rect width="24" height="24" fill="white"/>
</clipPath>
</defs>
</svg>
